<svg xmlns="http://www.w3.org/2000/svg" viewBox="0 0 480 369.356"><path d="M479.601 273.656c-.258.26-.602.402-.968.403H405.561c-.365 0-.709-.141-.968-.399-.26-.259-.402-.602-.403-.969-.001-.755.613-1.371 1.368-1.372H478.63c.365 0 .708.141.967.399.26.258.402.602.403.969.001.365-.141.71-.399.969zm-20.345-13.526H434.025c-.365 0-.708-.142-.967-.4-.259-.259-.402-.602-.403-.968-.001-.754.613-1.37 1.367-1.373h25.23c.753 0 1.368.613 1.371 1.367.001.755-.613 1.371-1.367 1.374zm-16.753-79.126h-11.948c-.367-.001-.71-.144-.969-.404-.259-.259-.4-.604-.399-.97.001-.752.615-1.366 1.368-1.368h11.948c.367.001.71.144.969.404s.4.604.399.97c-.001.753-.614 1.366-1.368 1.368zm-9.784-42.764c-.186.101-.394.154-.606.154H395.071c-3.142 0-6.095-1.223-8.317-3.444-2.224-2.221-3.448-5.176-3.449-8.319s1.223-6.098 3.443-8.321c2.222-2.223 5.176-3.448 8.319-3.449h.005c2.135 0 4.221.579 6.05 1.675 3.547-7.553 12.546-10.896 20.174-7.448 4.217 1.905 7.305 5.547 8.495 10.011.411-.054.827-.081 1.24-.082h.003c5.339 0 9.683 4.343 9.685 9.683.001 4.715-3.362 8.721-8 9.54zm5.222-10.422c-.488-3.798-3.977-6.49-7.769-6.005-.355.045-.709.119-1.053.219-.353.101-.723.059-1.043-.119-.32-.178-.552-.47-.653-.822-.014-.048-.025-.098-.033-.148-.562-3.311-2.382-6.206-5.122-8.15-2.74-1.944-6.075-2.703-9.386-2.142-4.598.781-8.366 4.016-9.833 8.443-.237.715-1.015 1.107-1.731.87-.166-.056-.317-.14-.449-.251-1.622-1.36-3.681-2.109-5.797-2.11l-.129-.001c-4.917.07-8.896 4.092-8.896 9.025 0 4.977 4.048 9.026 9.026 9.026h36.592c.088-.033.179-.055.271-.066 1.838-.235 3.476-1.173 4.61-2.64 1.135-1.468 1.63-3.29 1.395-5.129zM409.865 98.45c-.152.057-.31.085-.473.086v.001h-.002c-.57 0-1.086-.359-1.285-.892-.394-1.057-.829-2.146-1.295-3.236-.295-.697.031-1.502.727-1.796.692-.296 1.5.031 1.796.727.495 1.172.945 2.299 1.337 3.348.263.708-.098 1.498-.805 1.762zm-5.32-10.674h-.002c-.514 0-.98-.283-1.216-.74-.509-.983-1.07-2.018-1.666-3.077-.382-.646-.168-1.489.483-1.874.645-.385 1.491-.171 1.878.48l.035.064c.597 1.066 1.17 2.126 1.698 3.143.347.67.085 1.499-.585 1.847-.191.101-.407.155-.625.157zm-.694-5.109zm-4.508-5.296c-.224.145-.481.221-.746.222h-.002c-.466 0-.895-.234-1.149-.625-.625-.963-1.279-1.944-1.945-2.913-.422-.629-.254-1.482.373-1.903.614-.411 1.46-.255 1.885.351.695 1.013 1.362 2.013 1.985 2.974.199.306.267.672.191 1.03-.076.358-.286.665-.592.864zm-7.587-9.382c-.42.001-.825-.197-1.082-.528-.703-.902-1.438-1.823-2.186-2.737-.491-.567-.427-1.434.143-1.928.276-.24.628-.361.995-.33.365.026.698.194.937.47l.045.054c.77.939 1.519 1.877 2.227 2.787.464.595.357 1.457-.238 1.922-.24.186-.538.289-.841.29zm-7.621-8.988h-.2v-.019c-.309-.045-.596-.196-.81-.429-.787-.857-1.595-1.714-2.401-2.549-.525-.544-.509-1.412.034-1.938.544-.524 1.412-.508 1.937.035.827.854 1.651 1.729 2.449 2.601.51.557.474 1.426-.082 1.937-.254.233-.583.361-.927.362zm-8.317-8.35h-.005l-.372-.001.03-.046c-.219-.056-.422-.166-.59-.323-.826-.768-1.7-1.561-2.594-2.355-.273-.245-.434-.581-.454-.946-.02-.365.104-.717.349-.99.501-.556 1.363-.606 1.923-.115.904.804 1.792 1.611 2.642 2.402.268.248.424.587.438.952.014.366-.115.715-.364.983-.256.279-.622.439-1.003.439zm8.691 196.555h-13.788v24.236h-36.687v-24.236h-49.926v-26.987l52.841-77.267h33.771v75.702h13.788v28.552zm-3.287-25.263h-13.788v-75.702h-28.746l-51.291 74.996v22.681h49.926v24.235h30.111v-24.235h13.788v-21.975zm-43.899-16.202v16.202h-25.37l15.595-23.2c2.398-3.729 7.439-12.172 7.494-12.259l3.489-5.84-.908 14.112c0 .037-.3 8.305-.3 10.985zm-7.028-5.193l-12.169 18.106h15.908V205.74c0-2.739.289-10.806.3-11.149l.041-.637c-1.436 2.364-3.012 4.93-4.08 6.594zm22.215-78.097c.753.002 1.367.616 1.368 1.368v10.676c-.001.755-.616 1.369-1.371 1.371-.756 0-1.371-.615-1.371-1.371v-10.676c.003-.755.618-1.368 1.371-1.368h.003zm-6.367 4.534c.365 0 .707.142.966.4.26.259.403.602.404.968v6.141c0 .366-.141.71-.401.969-.259.259-.602.402-.969.403h-.001c-.756 0-1.371-.615-1.371-1.371v-6.137c-.001-.755.613-1.371 1.369-1.373h.003zm-6.622-8.81c.365 0 .707.142.966.4.26.259.403.602.404.968v14.952c-.001.755-.616 1.369-1.371 1.371-.756 0-1.371-.615-1.371-1.371v-14.946c-.001-.756.613-1.372 1.369-1.374h.003zm25.095 18.509c-1.605 0-3.114-.625-4.247-1.759-1.135-1.134-1.76-2.643-1.76-4.247s.624-3.113 1.758-4.248c.803-.803 1.798-1.335 2.876-1.587v-19.208h-57.608v61.005c2.651.624 4.637 2.996 4.637 5.835-.003 3.309-2.698 6.003-6.008 6.007-3.312 0-6.007-2.695-6.007-6.007 0-2.839 1.985-5.21 4.636-5.834v-61.005H235.79c-.756 0-1.371-.615-1.371-1.371V85.406H111.363v34.799c2.653.622 4.64 2.996 4.64 5.836-.004 3.309-2.698 6.003-6.007 6.007-3.312 0-6.007-2.695-6.007-6.007 0-2.837 1.983-5.208 4.632-5.833v-36.17c0-.756.615-1.371 1.371-1.371h124.427V58.674c-2.65-.625-4.634-2.996-4.634-5.834 0-3.312 2.695-6.007 6.007-6.007s6.007 2.695 6.007 6.007c-.003 2.836-1.988 5.208-4.638 5.833v23.993h67.103c.756 0 1.372.615 1.372 1.371v18.856h58.979c.756 0 1.371.615 1.371 1.371v20.577c2.651.623 4.637 2.995 4.638 5.834-.006 3.311-2.701 6.004-6.008 6.009zm-254.624-13.906h-.003c-1.797.004-3.258 1.466-3.258 3.264 0 1.801 1.465 3.265 3.265 3.265s3.265-1.464 3.265-3.264c-.001-1.798-1.465-3.263-3.263-3.266-.002 0-.004.001-.006.001zM239.057 52.84c-.002-1.798-1.467-3.263-3.265-3.265-1.8 0-3.265 1.465-3.265 3.265 0 1.795 1.457 3.255 3.25 3.264.004 0 .007-.001.01-.001h.003c.005 0 .009.002.013.002 1.796-.007 3.254-1.468 3.254-3.265zm63.837 32.566h-65.733v17.488h65.733V85.406zm1.371 83.804c-1.8.001-3.264 1.466-3.264 3.266.001 1.8 1.466 3.264 3.265 3.264h.001c1.8 0 3.265-1.465 3.265-3.265-.004-1.798-1.469-3.264-3.267-3.265zm60.351-41.798c-1.8 0-3.265 1.465-3.265 3.265s1.465 3.265 3.265 3.265 3.265-1.464 3.265-3.264c-.001-1.798-1.466-3.264-3.265-3.266zm2.27-84.45c0 .001-.001.001-.002.001-.309 0-.612-.106-.853-.3-.897-.716-1.827-1.441-2.764-2.155-.29-.232-.469-.559-.509-.923-.041-.364.063-.722.293-1.007.457-.571 1.279-.684 1.873-.253.958.73 1.904 1.468 2.817 2.195.286.228.466.555.507.918.04.364-.063.722-.292 1.008-.261.327-.651.515-1.07.516zm-9.473-7.002h-.2v-.018c-.204-.029-.399-.103-.572-.22-.937-.642-1.917-1.299-2.915-1.954-.632-.414-.81-1.265-.395-1.897.414-.632 1.265-.809 1.897-.396 1.001.658 1.988 1.319 2.96 1.984.623.428.782 1.284.354 1.907-.255.371-.677.593-1.129.594zm-9.939-6.323h-.007l-.255-.001.007-.025c-.157-.029-.307-.085-.445-.167-.986-.581-2.009-1.17-3.04-1.751-.65-.4-.852-1.246-.456-1.89.374-.608 1.163-.828 1.798-.499 1.032.581 2.071 1.179 3.093 1.782.651.383.868 1.226.486 1.877-.245.415-.698.674-1.181.674zm-10.343-5.65c-.213.001-.425-.05-.616-.146-1.034-.523-2.084-1.041-3.148-1.554-.68-.328-.967-1.149-.64-1.83.33-.679 1.149-.966 1.83-.639 1.079.52 2.143 1.045 3.193 1.575.327.166.57.449.683.797.113.348.084.72-.081 1.046-.233.463-.702.75-1.221.751zm-10.435-5.011l.004.022-.244.003c-.187-.001-.37-.041-.542-.118-1.065-.46-2.154-.918-3.235-1.359-.339-.139-.604-.402-.745-.74-.141-.337-.142-.71-.003-1.048.139-.339.4-.603.739-.744.336-.141.709-.143 1.049-.003 1.107.454 2.201.914 3.281 1.379.336.144.595.411.731.751.137.34.131.712-.014 1.048-.184.429-.57.73-1.021.809zm-11.181-4.321h-.002l-.003-.2v.2c-.159 0-.317-.028-.467-.081-1.092-.4-2.195-.792-3.312-1.178-.713-.237-1.104-1.014-.865-1.731.237-.716 1.01-1.107 1.733-.868 1.159.402 2.276.799 3.382 1.202.343.124.619.376.773.707.155.331.172.703.048 1.047-.197.539-.713.902-1.287.902zm-11.178-3.735l-.128-.008c-.093-.009-.184-.027-.274-.054-1.11-.34-2.234-.672-3.367-.998-.351-.102-.643-.334-.82-.654-.177-.321-.219-.691-.117-1.043.211-.725.973-1.143 1.698-.937 1.147.334 2.284.672 3.408 1.013.35.107.638.344.81.666.172.323.208.694.1 1.044-.177.581-.703.971-1.31.971zm-9.448 47.928h-8.635c-.756 0-1.371-.615-1.371-1.371s.615-1.371 1.371-1.371h8.635c.756 0 1.371.615 1.371 1.371s-.615 1.371-1.371 1.371zM292.981 7.78l-.001-.2-.001.2c-.108 0-.218-.014-.325-.04-1.139-.278-2.288-.546-3.418-.798-.357-.08-.662-.294-.858-.603-.195-.309-.26-.676-.18-1.033.08-.357.294-.662.603-.858.306-.196.671-.262 1.033-.181 1.151.259 2.308.528 3.469.811.735.179 1.186.921 1.009 1.654-.149.618-.697 1.048-1.331 1.048zm-10.194 42.7l6.107-6.107c.256-.26.599-.404.965-.407h.01c.362 0 .703.14.961.395.26.257.406.6.408.965.003.366-.138.711-.394.972l-6.119 6.119c-.254.255-.607.403-.968.403-.756-.001-1.371-.616-1.371-1.371 0-.367.142-.711.401-.969zm6.107 20.101l-6.107-6.106c-.258-.262-.398-.607-.395-.973.002-.366.147-.709.408-.966.531-.522 1.393-.522 1.924 0l6.107 6.108c.259.259.401.604.401.97s-.143.71-.402.969c-.26.258-.603.401-.968.401h-.482l.064-.065c-.205-.066-.393-.18-.55-.338zM281.45 5.362l-.006-.201v.2c-.078 0-.158-.007-.236-.021-1.178-.206-2.344-.399-3.461-.571-.745-.106-1.267-.802-1.162-1.55.107-.749.809-1.267 1.551-1.165 1.18.183 2.362.379 3.547.587.362.064.675.264.885.564.21.3.29.664.226 1.025-.116.652-.681 1.129-1.344 1.132zm-3.723 59.272h.003c.753.002 1.367.616 1.368 1.368v8.636c0 .755-.615 1.37-1.37 1.37h-.001c-.756 0-1.371-.615-1.371-1.371v-8.635c.001-.366.144-.711.404-.969.259-.257.603-.399.967-.399zm-1.37-24.319c.001-.366.144-.711.404-.969.259-.258.602-.4.967-.4h.003c.753.002 1.367.616 1.368 1.368v8.641c-.003.754-.617 1.366-1.37 1.366h-.001c-.756 0-1.371-.615-1.371-1.371v-8.635zm-4.658 12.505h-.483l.067-.067c-.208-.066-.398-.181-.553-.337l-6.106-6.106c-.258-.261-.398-.607-.395-.973.002-.366.147-.709.408-.966.531-.522 1.392-.523 1.923.001l6.108 6.107c.534.536.534 1.405-.001 1.939-.258.26-.602.402-.968.402zM269.77 3.705l-.001.004c-.049-.001-.099-.005-.146-.012-1.162-.124-2.337-.239-3.489-.339-.749-.05-1.322-.704-1.271-1.457.023-.365.188-.699.464-.94.275-.241.627-.36.993-.337l.057.005c1.18.102 2.373.218 3.538.343.75.083 1.295.761 1.213 1.511-.079.694-.661 1.219-1.358 1.222zm2.903 58.844c.522.531.522 1.393 0 1.924l-6.108 6.108c-.259.259-.602.402-.967.402-.756 0-1.371-.615-1.371-1.371 0-.366.142-.71.401-.968l6.106-6.107c.541-.531 1.409-.524 1.939.012zm-2.095-5.072c0 .756-.615 1.371-1.371 1.371h-8.635c-.756 0-1.371-.615-1.371-1.371s.615-1.371 1.371-1.371h8.635c.757 0 1.371.615 1.371 1.371zM258.306 2.813l.012.03-.293.005h-.047c-1.17-.045-2.349-.079-3.514-.1-.367-.007-.708-.157-.963-.421s-.39-.611-.383-.978c.007-.366.156-.708.42-.963.263-.255.611-.407.979-.383 1.18.022 2.366.056 3.56.1.366.015.704.172.952.441.248.27.376.62.361.985-.026.638-.482 1.157-1.084 1.284zm-12.022-.033c-1.17.033-2.351.079-3.507.135-.011.002-.038.004-.064.004l-.5.013.081-.081c-.207-.068-.396-.184-.553-.344-.256-.261-.395-.607-.391-.973.007-.719.574-1.314 1.291-1.355 1.175-.057 2.374-.103 3.564-.138.733-.022 1.388.575 1.409 1.33.022.755-.575 1.388-1.33 1.409zm-11.671.73c-1.186.114-2.361.238-3.497.37-.048.006-.102.009-.155.009h-.002c-.756-.007-1.365-.627-1.358-1.384.006-.684.523-1.264 1.202-1.347 1.148-.135 2.341-.261 3.545-.377.364-.029.723.086 1.001.325.278.238.447.57.475.935.059.74-.473 1.385-1.211 1.469zm-11.598 1.503c-1.166.191-2.319.39-3.461.6-.081.016-.164.023-.248.024h-.007c-.363 0-.706-.141-.964-.397-.26-.258-.404-.601-.406-.967-.003-.669.472-1.239 1.131-1.355 1.163-.214 2.344-.42 3.51-.61.748-.113 1.448.409 1.558 1.157.109.737-.381 1.417-1.113 1.548zm-11.482 2.263c-1.149.266-2.287.541-3.412.824-.109.028-.221.042-.333.042h-.003c-.364 0-.708-.142-.966-.399-.26-.258-.403-.602-.404-.968-.001-.631.425-1.179 1.038-1.332 1.121-.283 2.286-.564 3.463-.836.738-.169 1.473.29 1.644 1.026.17.736-.291 1.474-1.027 1.643zm-11.313 3.003c-1.131.339-2.249.685-3.354 1.038-.135.042-.274.064-.415.065h-.003c-.365 0-.708-.142-.967-.4-.259-.259-.402-.602-.403-.968-.001-.6.383-1.126.955-1.307 1.12-.359 2.253-.71 3.4-1.054.353-.105.723-.067 1.044.107.322.174.557.463.662.814.218.723-.194 1.488-.919 1.705zm-11.098 3.707c-1.113.41-2.208.825-3.285 1.246-.158.062-.323.093-.492.093h-.007c-.753 0-1.368-.612-1.37-1.367-.001-.563.35-1.078.875-1.281 1.092-.426 2.202-.847 3.33-1.264.345-.126.717-.111 1.049.041.333.153.586.427.712.771.261.709-.103 1.499-.812 1.761zm-10.733 4.33c-.042.021-.086.04-.131.058-1.062.467-2.139.953-3.192 1.442-.178.084-.377.129-.575.131h-.001c-.756-.001-1.37-.616-1.37-1.372.001-.531.312-1.019.794-1.243 1.059-.49 2.141-.979 3.249-1.467.318-.161.689-.188 1.037-.074s.63.358.795.684c.165.327.193.699.078 1.047-.115.346-.358.629-.684.794zM164.6 25.067c-.199.107-.422.164-.646.164h-.007c-.365 0-.709-.142-.968-.401s-.401-.603-.401-.969c0-.503.275-.964.716-1.204.997-.541 2.057-1.102 3.152-1.668.324-.168.696-.199 1.045-.089.349.111.634.351.802.677.347.671.083 1.499-.588 1.847-1.074.555-2.119 1.108-3.105 1.643zm-7.091 4.048c-1.084.654-2.089 1.275-3.014 1.862-.22.14-.48.208-.731.213h-.003c-.754 0-1.368-.613-1.37-1.367-.001-.474.238-.908.639-1.162.925-.585 1.946-1.217 3.036-1.876.309-.193.676-.252 1.033-.169.356.083.659.301.851.612.193.311.253.678.17 1.035-.083.357-.3.66-.611.852zm-12.568 8.521c-.247.201-.552.309-.864.309h-.007c-.365 0-.707-.142-.965-.4-.259-.258-.402-.602-.403-.968-.001-.415.183-.803.505-1.065.009-.007.994-.811 2.9-2.187.631-.428 1.484-.263 1.909.361.407.6.275 1.416-.301 1.857-1.816 1.313-2.767 2.087-2.774 2.093zm-6.455 33.207c-2.593 1.73-5.611 2.644-8.729 2.644h-.66l.004-.003H78.776c-.26 0-.512-.071-.734-.204-6.971-1.222-11.661-7.879-10.459-14.859 1.067-6.191 6.4-10.684 12.682-10.684h.002c.684.002 1.372.06 2.048.171 2.689-10.962 13.759-17.749 24.764-15.157 6.284 1.482 11.558 5.879 14.151 11.784 7.198-4.645 16.848-2.657 21.617 4.491 4.812 7.218 2.856 17.005-4.361 21.817zm-8.7-25.985h-.012c-3.026 0-5.967 1.07-8.285 3.015-.291.244-.659.359-1.039.328-.379-.033-.722-.212-.967-.503-.117-.139-.204-.296-.261-.466-1.493-4.507-4.653-8.163-8.896-10.295s-9.064-2.483-13.57-.988c-6.258 2.073-10.831 7.4-11.935 13.899-.063.374-.268.702-.578.922-.31.221-.686.308-1.061.244-.052-.008-.104-.021-.157-.035-2.571-.74-5.278-.435-7.62.861-2.342 1.295-4.039 3.425-4.779 5.996-1.528 5.309 1.548 10.871 6.857 12.398.481.139.977.241 1.473.306.125.017.247.049.361.096h50.454c7.102 0 12.883-5.773 12.889-12.876.01-7.107-5.767-12.895-12.874-12.902zM86.235 117.98c-.255.254-.607.401-.967.401h-.482l.066-.066c-.207-.066-.398-.181-.552-.337l-4.515-4.516-4.514 4.515c-.258.259-.601.402-.967.402h-.002c-.366 0-.71-.143-.968-.402-.259-.259-.401-.604-.401-.969s.142-.709.401-.968l4.515-4.516-4.515-4.515c-.531-.54-.524-1.408.014-1.939.53-.521 1.392-.522 1.922 0l4.516 4.516 4.515-4.516c.54-.53 1.408-.524 1.939.014.522.529.522 1.392 0 1.922l-4.516 4.518 4.516 4.517c.531.536.53 1.405-.005 1.939zm34.782 23.072c.754 0 1.369.613 1.371 1.368 0 .366-.141.71-.4.97-.258.259-.602.403-.968.404H55.98c-.364 0-.708-.142-.966-.4-.26-.258-.403-.602-.404-.968-.001-.756.612-1.372 1.367-1.374H121.017zm-73.318 2.742H16.725c-.364 0-.708-.142-.966-.4-.26-.258-.403-.602-.404-.968 0-.366.141-.71.4-.97.258-.26.602-.403.968-.404h30.973c.754 0 1.369.613 1.371 1.368 0 .366-.141.71-.4.97-.259.259-.602.403-.968.404zM24.53 293.113h.005c2.136 0 4.224.58 6.053 1.677 1.702-3.629 4.697-6.401 8.454-7.82 3.828-1.445 7.99-1.312 11.72.371 4.218 1.906 7.305 5.548 8.494 10.012.41-.055.827-.082 1.24-.083 5.341 0 9.686 4.345 9.686 9.685 0 4.712-3.362 8.718-8 9.538-.183.1-.389.152-.598.152H24.536c-3.141 0-6.094-1.223-8.316-3.442-2.223-2.221-3.449-5.175-3.45-8.318-.004-6.487 5.272-11.768 11.76-11.772zm.012 20.793h36.592c.088-.033.179-.056.271-.066 1.838-.234 3.477-1.171 4.612-2.636 1.135-1.466 1.632-3.287 1.398-5.126-.483-3.799-3.976-6.487-7.764-6.013-.358.046-.716.12-1.064.222-.374.103-.777.048-1.108-.157-.332-.21-.558-.551-.621-.937-.562-3.312-2.38-6.207-5.12-8.151-2.739-1.946-6.074-2.707-9.385-2.145-4.602.78-8.371 4.017-9.837 8.448-.239.716-1.017 1.106-1.732.867-.166-.056-.317-.139-.449-.252-1.621-1.355-3.677-2.103-5.79-2.103H24.404c-4.913.073-8.887 4.093-8.887 9.024 0 4.976 4.049 9.025 9.025 9.025zM9.056 157.725H1.371c-.754 0-1.369-.613-1.371-1.368 0-.366.141-.711.4-.97.258-.26.602-.403.968-.404h7.686c.364 0 .707.142.966.4.26.258.403.602.404.968 0 .366-.141.711-.4.97-.258.26-.602.403-.968.404zm59.765 119.928c-.005-.001-.006-.001-.009 0-.363 0-.705-.14-.963-.397-.259-.258-.403-.6-.404-.966-.002-.364.146-.72.404-.977l4.513-4.514-4.514-4.514c-.537-.53-.543-1.398-.013-1.937.531-.537 1.4-.543 1.938-.014l4.526 4.527 4.517-4.517c.256-.26.599-.405.965-.407h.01c.362 0 .703.139.962.394.538.53.544 1.399.014 1.938l-4.529 4.531 4.516 4.517c.259.258.402.6.403.966.001.365-.14.709-.398.969-.256.258-.61.405-.974.405h-.256l.007-.027c-.27-.05-.524-.182-.72-.377l-4.515-4.516-4.514 4.516c-.259.258-.602.4-.966.4zm33.07-108.007c.366.001.71.144.969.404.259.259.4.604.4.97-.002.752-.616 1.366-1.368 1.368H90.766c-.756-.002-1.37-.618-1.369-1.374.002-.752.616-1.366 1.368-1.368h11.126zm-85.166-11.921c-.754 0-1.369-.613-1.37-1.368 0-.366.141-.711.4-.97.258-.26.602-.403.968-.404h93.274c.367.001.711.144.969.404.259.259.4.604.4.97-.002.752-.616 1.366-1.368 1.368H16.725zm1.602 81.153c-.081-1.108-.131-2.242-.148-3.369-.01-.711.56-1.3 1.271-1.311.348-.002.664.115.912.349.248.235.39.552.399.893.016 1.099.063 2.182.142 3.25.025.344-.085.677-.31.938-.225.261-.539.42-.883.444-.033.003-.065.004-.096.004-.672-.001-1.237-.527-1.287-1.198zm3.547 11.956c-.116.032-.232.049-.345.049l-.051-.002c-.551-.021-1.036-.398-1.19-.93-.311-1.067-.593-2.171-.837-3.279-.066-.344.005-.688.199-.974.194-.285.487-.478.826-.543.673-.129 1.33.291 1.496.955.239 1.082.506 2.129.797 3.117.095.336.055.686-.115.989-.169.304-.446.523-.78.618zm-.742-22.879c-.073.652-.623 1.145-1.279 1.146-.05 0-.1-.003-.149-.009-.706-.08-1.217-.721-1.137-1.428.128-1.115.286-2.236.471-3.334.134-.703.812-1.167 1.509-1.031.683.13 1.138.77 1.036 1.458-.182 1.076-.333 2.151-.451 3.198zm.951-9.604c-.127 0-.254-.02-.378-.057-.682-.208-1.066-.931-.859-1.612.33-1.08.693-2.156 1.08-3.197.128-.325.372-.578.689-.714.316-.137.666-.143.988-.016.645.255.973.968.744 1.624-.379 1.026-.725 2.054-1.032 3.057-.166.546-.662.914-1.232.915zm4.426 42.421c-.199.118-.425.181-.656.181-.454 0-.88-.243-1.111-.633-.557-.935-1.1-1.942-1.614-2.992-.152-.31-.173-.661-.062-.986.112-.327.345-.589.655-.741.64-.313 1.414-.046 1.727.593.468.958.977 1.903 1.515 2.807.176.298.225.646.14.98-.086.334-.297.615-.594.791zm-.605-23.949c-.259-.26-.4-.603-.4-.969.002-.752.615-1.366 1.368-1.369h8.638c.755 0 1.369.614 1.371 1.369 0 .366-.141.709-.4.969-.259.259-.602.403-.968.404h-8.641c-.366-.001-.71-.144-.968-.404zm6.893 32.66l-.003.003-.084.001c-.328 0-.64-.123-.879-.345-.83-.77-1.636-1.587-2.394-2.427-.477-.528-.436-1.345.092-1.824.529-.476 1.346-.435 1.824.093.718.794 1.469 1.556 2.234 2.265.253.234.4.553.413.898.013.344-.109.673-.344.926-.222.241-.532.388-.859.41zm.069-20.522c-.254.256-.607.402-.967.402-.366 0-.71-.143-.969-.402-.259-.26-.401-.604-.401-.97 0-.36.146-.712.401-.968l6.107-6.107c.54-.529 1.408-.524 1.938.013.524.531.524 1.393 0 1.924l-6.109 6.108zm5.14-17.761l-.484.001.067-.066c-.206-.066-.395-.181-.552-.339l-6.107-6.105c-.536-.529-.543-1.398-.012-1.937.257-.26.6-.406.966-.408h.01c.362 0 .703.139.962.394l6.119 6.12c.259.26.401.604.401.97 0 .367-.143.71-.403.969-.259.258-.603.4-.967.401zm-2.449-36.456c.342.05.643.23.849.507.417.56.317 1.341-.228 1.779-.832.645-1.631 1.341-2.375 2.069-.242.237-.563.368-.902.368h-.004v-.001c-.343-.001-.664-.135-.907-.377-.244-.244-.379-.568-.379-.913 0-.346.142-.683.39-.925.819-.801 1.692-1.562 2.595-2.263.279-.209.618-.297.961-.244zm-10.512 12.195c.001-.218.057-.433.162-.624.554-.997 1.146-1.974 1.759-2.904.417-.584 1.224-.722 1.805-.308.547.39.703 1.147.354 1.72-.581.882-1.138 1.803-1.661 2.745-.226.413-.658.668-1.128.668h-.006l-.715-.004.19-.114c-.448-.203-.76-.656-.76-1.179zm24.047 21.92l6.108-6.107c.256-.259.599-.405.965-.407h.01c.362 0 .704.14.962.394.538.531.543 1.399.014 1.938l-6.121 6.119c-.258.26-.601.403-.967.403-.755-.001-1.37-.617-1.37-1.372-.001-.366.141-.709.399-.968zm2.499 7.964c-.259-.26-.4-.603-.4-.969.002-.752.615-1.366 1.368-1.369h8.636c.756.003 1.369.619 1.368 1.374-.002.753-.615 1.367-1.367 1.368H52.56c-.367-.001-.711-.144-.969-.404zm3.608 12.138l-6.108-6.106c-.531-.54-.525-1.408.013-1.939.531-.523 1.393-.523 1.924 0l6.109 6.108c.534.536.533 1.405-.002 1.939-.255.255-.608.401-.967.401h-.482l.065-.065c-.207-.066-.396-.18-.552-.338zm-30.006-76.976c-.258-.26-.4-.604-.4-.97.002-.752.616-1.366 1.368-1.368H78.26c.367.001.711.144.969.404.259.259.4.604.4.97-.002.752-.615 1.366-1.367 1.368h-52.1c-.367-.002-.711-.145-.969-.404zm16.913 21.668v-.002c-.343 0-.666-.134-.909-.376-.245-.243-.38-.567-.382-.911-.002-.561.354-1.055.886-1.23 1.106-.369 2.251-.647 3.404-.826.342-.054.683.029.961.233.279.204.461.503.514.845.109.703-.375 1.364-1.078 1.473-1.01.158-2.015.402-2.986.724-.129.044-.267.069-.41.07zm1.928 49.358c.756 0 1.371.615 1.371 1.371v8.636c-.001.755-.616 1.369-1.371 1.369s-1.37-.614-1.371-1.369v-8.636c0-.756.615-1.371 1.371-1.371zm-1.371-24.317c0-.756.615-1.371 1.371-1.371s1.371.615 1.371 1.371v8.636c0 .756-.615 1.371-1.371 1.371s-1.371-.615-1.371-1.371v-8.636zm107.292-88.017v-13.669c-.001-.756.612-1.372 1.368-1.374h.003c.754 0 1.369.613 1.371 1.368v13.674c-.001.755-.616 1.37-1.371 1.371-.756.001-1.371-.615-1.371-1.37zm6.622.001v-27.429c-.002-.756.612-1.372 1.368-1.374h.003c.754 0 1.369.613 1.371 1.368v27.438c-.002.754-.617 1.368-1.371 1.368-.755 0-1.371-.616-1.371-1.371zm7.734 1.371c-.756-.001-1.371-.615-1.371-1.371v-13.715c-.001-.756.612-1.372 1.368-1.374h.003c.754 0 1.369.613 1.371 1.368v13.724c-.002.755-.617 1.368-1.37 1.368h-.001zm7.902 86.605h13.788v28.552h-13.788v24.236h-36.692v-24.236H85.597v-26.987l52.844-77.267h33.771v75.702zm-3.294-72.413h-28.745l-51.291 74.996v22.681h49.926v24.235h30.11v-24.235h13.788v-21.974h-13.788v-75.703zm-30.109 59.5v16.202h-25.37l15.595-23.2c2.398-3.729 7.439-12.172 7.494-12.259l3.489-5.841-.908 14.113c0 .037-.3 8.305-.3 10.985zm-7.027-5.193l-12.169 18.106h15.908V205.74c0-2.739.289-10.806.3-11.149l.041-.637c-1.436 2.365-3.01 4.93-4.08 6.594zm112.794-63.864c-.756 0-1.371-.615-1.371-1.371v-13.908c.001-.366.144-.71.404-.969.259-.258.601-.4.966-.4h.003c.752.002 1.366.615 1.369 1.368v13.908c0 .756-.615 1.371-1.371 1.372zm5.303-1.372v-8.321c-.001-.366.14-.71.399-.97.259-.259.602-.403.969-.404h.003c.365 0 .708.142.967.4s.403.603.404.968v8.326c0 .756-.615 1.37-1.371 1.371-.756.002-1.371-.613-1.371-1.37zm7.527 1.712v-20.062c-.001-.366.14-.71.399-.97.259-.259.602-.403.969-.404h.003c.754 0 1.368.613 1.371 1.368v20.069c-.001.755-.616 1.369-1.371 1.37-.757 0-1.371-.615-1.371-1.371zm12.601 21.057c7.785 11.053 11.732 27.636 11.732 49.289 0 22.401-3.85 39.103-11.442 49.646-7.713 10.707-19.63 16.138-35.418 16.138-15.454 0-27.287-5.666-35.17-16.84-7.757-10.991-11.69-27.46-11.69-48.947 0-22.511 3.849-39.313 11.439-49.94 7.713-10.798 19.631-16.273 35.422-16.273 15.396.002 27.215 5.697 35.127 16.927zm-35.128-13.638c-14.668 0-25.684 5.012-32.745 14.898-7.183 10.058-10.827 26.217-10.827 48.028 0 20.794 3.731 36.624 11.091 47.05 7.333 10.391 17.958 15.447 32.484 15.447 14.671 0 25.688-4.971 32.748-14.775 7.181-9.971 10.823-26.027 10.823-47.724 0-20.961-3.746-36.908-11.133-47.395-7.262-10.305-18.176-15.529-32.441-15.529zm0 101.736c-4.934 0-8.456-3.058-10.466-9.092-1.843-5.527-2.74-15.25-2.74-29.723 0-14.588.899-24.39 2.737-29.975 2.008-6.095 5.53-9.179 10.467-9.179s8.469 3.197 10.472 9.492c1.838 5.784 2.733 15.487 2.733 29.658 0 14.114-.88 23.745-2.689 29.443-1.974 6.225-5.512 9.376-10.514 9.376zm7.339-67.473c-1.542-4.846-3.943-7.202-7.34-7.202-3.406 0-5.809 2.264-7.345 6.92-1.707 5.174-2.572 14.911-2.572 28.945 0 13.917.864 23.567 2.571 28.682 1.534 4.603 3.938 6.84 7.347 6.84 3.455 0 5.869-2.314 7.382-7.075 1.682-5.296 2.535-14.867 2.535-28.448 0-13.638-.867-23.281-2.578-28.662zM87.086 287.327h296.295c.831 0 1.508.676 1.508 1.507v46.647c0 .831-.676 1.508-1.508 1.508H87.086c-.831 0-1.508-.676-1.509-1.508v-46.646c.001-.831.677-1.508 1.509-1.508zm1.509 46.646h293.278v-43.629H88.595v43.629zm196.766-9.208l-5.806-9.687h-3.915v9.687h-3.964v-24.251h6.851c3.129 0 5.446.586 6.95 1.758 1.504 1.172 2.256 2.942 2.256 5.308 0 3.019-1.571 5.169-4.711 6.453l6.851 10.732h-4.512zm-1.709-17.052c0-1.371-.448-2.355-1.344-2.953-.896-.597-2.245-.896-4.047-.896h-2.621v7.929h2.754c1.846 0 3.185-.343 4.014-1.028.829-.686 1.244-1.703 1.244-3.052zm-28.53 17.383c-3.661 0-6.472-1.087-8.435-3.259-1.963-2.174-2.944-5.261-2.944-9.265 0-4.003.986-7.077 2.96-9.223 1.974-2.146 4.791-3.218 8.452-3.218 3.604 0 6.391 1.089 8.36 3.268 1.968 2.179 2.953 5.247 2.953 9.206 0 3.948-.987 7.017-2.961 9.206s-4.769 3.285-8.385 3.285zm5.349-19.258c-1.188-1.537-2.96-2.306-5.316-2.306-2.378 0-4.172.769-5.383 2.306s-1.816 3.793-1.816 6.768c0 2.986.602 5.25 1.808 6.792 1.205 1.544 2.991 2.314 5.358 2.314 2.355 0 4.132-.763 5.332-2.289 1.2-1.526 1.8-3.799 1.8-6.818 0-2.974-.595-5.23-1.783-6.767zm-23.563 18.927l-5.806-9.687h-3.915v9.687h-3.964v-24.251h6.851c3.129 0 5.446.586 6.95 1.758 1.504 1.172 2.256 2.942 2.256 5.308 0 3.019-1.57 5.169-4.711 6.453l6.851 10.732h-4.512zm-1.708-17.052c0-1.371-.448-2.355-1.344-2.953-.896-.597-2.245-.896-4.047-.896h-2.621v7.929h2.753c1.847 0 3.185-.343 4.014-1.028.83-.686 1.245-1.703 1.245-3.052zm-20.005 17.052l-5.806-9.687h-3.915v9.687h-3.964v-24.251h6.851c3.129 0 5.446.586 6.95 1.758 1.504 1.172 2.256 2.942 2.256 5.308 0 3.019-1.57 5.169-4.711 6.453l6.851 10.732h-4.512zm-1.708-17.052c0-1.371-.448-2.355-1.344-2.953-.896-.597-2.245-.896-4.047-.896h-2.621v7.929h2.754c1.847 0 3.185-.343 4.014-1.028.829-.686 1.244-1.703 1.244-3.052zm-30.936-7.199h13.718v3.351h-9.754v6.602h9.14v3.318h-9.14v7.614h9.754v3.367h-13.718v-24.252zm-70.44 54.534h-3.67l-.005 10.391h-1.348v-10.391h-3.67v-1.199h8.693v1.199zm2.861 1.791c.004.374-.017.747-.064 1.118h.079c.269-.426.652-.768 1.105-.987.51-.248 1.071-.371 1.638-.361.864-.067 1.721.205 2.39.756.588.657.877 1.529.799 2.407v5.667h-1.322v-5.62c.045-.571-.128-1.137-.484-1.586-.408-.38-.958-.57-1.514-.522-.744-.065-1.478.208-1.998.744-.483.718-.705 1.58-.629 2.442v4.542h-1.316v-12.334h1.316v3.734zm11.974-.246c.979-.046 1.927.348 2.585 1.074.661.792 1 1.804.951 2.835v.832h-5.985c-.036.843.239 1.67.772 2.323.541.551 1.295.84 2.065.792.955-.004 1.899-.203 2.774-.586v1.173c-.424.187-.866.332-1.319.431-.495.096-.999.14-1.503.132-1.134.06-2.24-.367-3.04-1.173-.785-.898-1.185-2.068-1.114-3.258-.064-1.201.303-2.384 1.035-3.338.684-.822 1.711-1.28 2.779-1.237zm2.125 3.671c.046-.681-.151-1.356-.556-1.906-.398-.454-.983-.699-1.586-.662-.629-.028-1.239.222-1.669.683-.445.53-.703 1.193-.732 1.885h4.543zm9.112-1.903h.064c.282-.52.682-.968 1.166-1.308.439-.301.96-.462 1.493-.461.349-.002.696.031 1.038.1l-.182 1.221c-.312-.073-.631-.113-.951-.119-.698 0-1.359.314-1.798.856-.508.592-.775 1.354-.749 2.133v4.661h-1.316v-8.693h1.085l.15 1.61zm8.715-1.768c.979-.046 1.927.348 2.585 1.074.661.792 1 1.804.951 2.835v.832h-5.985c-.036.843.239 1.67.772 2.323.541.551 1.295.84 2.065.792.955-.004 1.899-.203 2.774-.586v1.173c-.424.187-.866.332-1.319.431-.495.096-.999.14-1.503.132-1.134.06-2.24-.367-3.04-1.173-.785-.898-1.185-2.068-1.114-3.258-.064-1.201.303-2.384 1.035-3.338.684-.822 1.711-1.28 2.779-1.237zm2.125 3.671c.046-.681-.151-1.356-.556-1.906-.398-.454-.983-.699-1.586-.662-.629-.028-1.239.222-1.669.683-.445.53-.703 1.193-.732 1.885h4.543zm9.055-2.803c.166.146.319.307.455.481h.071l.191-1.189h1.038v12.589h-1.316v-3.719c-.005-.451.024-.901.088-1.347h-.1c-.622.889-1.662 1.39-2.745 1.322-1.013.049-1.989-.39-2.624-1.182-.682-.959-1.015-2.123-.944-3.297-.071-1.186.265-2.36.951-3.329 1.272-1.453 3.482-1.6 4.935-.329zm-3.915 6.177c.411.577 1.09.903 1.797.862.712.064 1.416-.195 1.917-.705.471-.7.696-1.536.641-2.378v-.294c.077-.918-.139-1.837-.618-2.624-.486-.566-1.215-.863-1.958-.799-.708-.033-1.38.309-1.771.899-.454.767-.668 1.652-.614 2.541-.056.875.155 1.746.606 2.498zm9.703-6.882h-.003v-.004l.003.004zm-.003 5.631c-.045.571.128 1.137.484 1.586.408.381.958.571 1.514.523.745.067 1.48-.207 1.998-.745.484-.714.707-1.573.631-2.433v-4.566h1.316v8.693h-1.085l-.191-1.165h-.072c-.271.429-.661.771-1.122.983-.513.234-1.073.35-1.637.34-.859.067-1.711-.203-2.375-.752-.583-.661-.869-1.532-.789-2.41v-5.684h1.328v5.63zm12.056-5.794c.979-.046 1.927.348 2.585 1.074.661.792 1 1.804.951 2.835v.832h-5.985c-.036.843.239 1.67.772 2.323.541.551 1.295.84 2.065.792.955-.004 1.899-.203 2.774-.586v1.173c-.424.187-.866.332-1.319.431-.495.096-.999.14-1.503.132-1.134.06-2.24-.367-3.04-1.173-.785-.898-1.185-2.068-1.114-3.258-.064-1.201.303-2.384 1.035-3.338.684-.822 1.711-1.28 2.779-1.237zm2.126 3.671c.046-.681-.151-1.356-.556-1.906-.398-.454-.983-.699-1.586-.662-.629-.028-1.239.222-1.669.683-.445.53-.703 1.193-.732 1.885h4.543zm7.551 2.049c-.53-.362-1.107-.648-1.716-.851-.6-.203-1.178-.468-1.725-.789-.309-.193-.57-.455-.761-.765-.173-.312-.258-.665-.249-1.022-.019-.67.306-1.304.863-1.678.707-.445 1.535-.66 2.37-.613.943.002 1.877.196 2.743.571l-.468 1.069c-.748-.331-1.553-.514-2.37-.539-.488-.03-.976.071-1.412.294-.297.16-.48.471-.476.808-.007.214.056.424.179.599.156.195.352.354.575.468.493.247 1.001.461 1.522.642.768.227 1.48.613 2.089 1.133.362.387.556.901.541 1.431.036.736-.302 1.44-.899 1.871-.755.481-1.643.711-2.537.657-.931.049-1.859-.139-2.698-.548v-1.22c.428.216.879.383 1.344.5.452.118.916.179 1.383.182.548.031 1.095-.082 1.586-.329.538-.318.717-1.012.399-1.551-.072-.123-.169-.232-.283-.32zm4.499-7.578h.761v2.013h2.521v1.023h-2.521v5.113c-.029.434.104.863.373 1.205.26.286.634.441 1.02.424.226 0 .451-.017.674-.051.174-.025.346-.061.516-.108v1.003c-.201.085-.413.142-.629.17-.247.043-.498.065-.749.068-1.681 0-2.521-.885-2.521-2.655v-5.168h-1.245v-.634l1.245-.548.555-1.855zm8.409 1.858c.979-.046 1.927.348 2.585 1.074.661.792 1 1.804.951 2.835v.832h-5.985c-.036.843.239 1.67.772 2.323.541.551 1.295.84 2.065.792.955-.004 1.899-.203 2.774-.586v1.173c-.424.187-.866.332-1.319.431-.495.096-.999.14-1.503.132-1.134.06-2.24-.367-3.04-1.173-.785-.898-1.185-2.068-1.114-3.258-.064-1.201.303-2.384 1.035-3.338.684-.822 1.711-1.28 2.779-1.237zm2.126 3.671c.046-.681-.151-1.356-.556-1.906-.397-.453-.98-.697-1.582-.662h-.004c-.629-.028-1.239.222-1.669.683-.445.53-.703 1.193-.732 1.885h4.543zm6.768-3.671c1.063-.056 2.082.427 2.712 1.285h.1l-.055-.627-.031-.609v-3.536h1.316v12.334h-1.07l-.173-1.164h-.071c-.616.887-1.65 1.388-2.728 1.324-1.018.052-2.001-.379-2.652-1.165-.689-.963-1.023-2.134-.947-3.315-.073-1.188.263-2.366.951-3.337.642-.798 1.626-1.24 2.648-1.19zm-1.625 7.053c.414.57 1.088.891 1.791.851.729.067 1.449-.203 1.954-.733.464-.698.677-1.532.606-2.367v-.278c.08-.922-.135-1.845-.614-2.636-.49-.562-1.22-.855-1.962-.789-.708-.033-1.38.309-1.771.899-.454.767-.668 1.652-.614 2.541-.06.88.153 1.757.61 2.512zm13.927-5.705h.064c.298-.44.705-.795 1.181-1.03.485-.219 1.013-.327 1.546-.317 1.027-.056 2.019.384 2.668 1.182 1.257 2.036 1.252 4.609-.015 6.639-.646.793-1.63 1.232-2.652 1.184-.533.006-1.061-.1-1.55-.313-.472-.211-.878-.544-1.178-.964h-.1c.063.479.097.961.1 1.444v3.575h-1.316v-12.589h1.07l.182 1.189zm.673 5.762c.488.562 1.217.856 1.958.789.707.023 1.375-.323 1.765-.912.464-.752.687-1.629.637-2.512.057-.879-.166-1.754-.637-2.498-.415-.572-1.09-.897-1.796-.864-.722-.067-1.434.206-1.926.737-.454.694-.669 1.518-.61 2.346v.294c-.08.916.133 1.833.609 2.62zm11.581-3.428l1.474-.049v-.539c.044-.54-.113-1.078-.441-1.51-.377-.358-.889-.536-1.407-.489-.859.035-1.699.262-2.458.665l-.405-1.006c.445-.239.917-.423 1.407-.548.501-.131 1.016-.198 1.534-.2.827-.067 1.649.179 2.303.69.551.598.823 1.401.749 2.211v5.93h-.972l-.26-1.23h-.064c-.339.466-.784.845-1.299 1.105-.511.209-1.061.307-1.613.29-.735.044-1.459-.194-2.025-.665-.511-.495-.779-1.189-.733-1.898.001-1.753 1.404-2.673 4.21-2.757zm-2.398 3.864c.345.267.775.399 1.211.373.707.04 1.402-.202 1.93-.673.487-.503.741-1.187.699-1.886v-.784l-1.316.055c-.783-.025-1.56.142-2.263.487-.461.286-.727.802-.693 1.343-.027.407.132.807.432 1.085zm4.183 1.293l.002.007-.002-.007zm4.532-.67c-.225-.103-.418-.265-.559-.469-.152-.215-.231-.474-.226-.737-.006-.297.082-.589.253-.832.217-.282.489-.516.799-.69-.457-.191-.842-.521-1.099-.944-.287-.455-.434-.984-.425-1.522-.051-.823.262-1.626.856-2.198.682-.553 1.547-.829 2.424-.772.416-.005.83.048 1.231.158h3.004l.005-.003v.833l-1.609.191c.169.22.304.465.4.725.121.323.18.666.175 1.011.032.776-.289 1.526-.873 2.038-.678.541-1.532.812-2.398.761-.245.001-.489-.02-.729-.064-.474.177-.802.613-.841 1.117-.012.218.103.423.294.528.317.136.662.195 1.006.17h1.539c.769-.049 1.533.162 2.167.599.516.42.798 1.063.756 1.728.038.887-.403 1.727-1.156 2.198-1.031.568-2.203.83-3.378.756-.919.056-1.834-.165-2.627-.634-.601-.394-.951-1.074-.923-1.791-.009-.504.172-.994.508-1.371.379-.409.879-.684 1.426-.786zm.567-3.849c.401.332.913.499 1.433.468.916.145 1.775-.48 1.92-1.396.025-.157.027-.318.007-.476.136-.945-.519-1.821-1.464-1.957-.161-.023-.325-.024-.487-.001-.524-.034-1.039.146-1.427.5-.359.407-.538.941-.5 1.483h.001c-.037.513.152 1.017.517 1.379zm-.63 7.054c.524.274 1.113.4 1.704.366.848.055 1.696-.117 2.455-.5.494-.266.801-.782.799-1.343.042-.381-.124-.755-.435-.979-.516-.226-1.079-.32-1.641-.274h-1.577c-.503-.031-1 .121-1.399.429-.349.311-.535.765-.507 1.232-.015.441.216.853.601 1.069zm11.442-11.374c.979-.046 1.927.348 2.585 1.074.661.792 1 1.804.951 2.835v.832h-5.985c-.036.843.24 1.67.774 2.323.541.55 1.295.839 2.065.792.955-.004 1.899-.203 2.774-.586v1.173c-.424.187-.866.332-1.319.431-.496.096-1 .14-1.505.132-1.134.059-2.24-.368-3.04-1.173-.785-.898-1.185-2.068-1.114-3.258-.064-1.201.303-2.384 1.035-3.338.684-.822 1.711-1.28 2.779-1.237zm2.124 3.671c.046-.681-.151-1.356-.556-1.906-.397-.454-.982-.699-1.585-.662-.629-.028-1.239.222-1.669.683-.445.531-.703 1.193-.733 1.885h4.543zm10.988-3.671c1.062-.055 2.08.428 2.71 1.285h.1l-.055-.627-.031-.609v-3.536h1.315v12.334h-1.069l-.172-1.164h-.07c-.616.887-1.65 1.388-2.728 1.324-1.018.053-2.002-.379-2.652-1.165-.689-.963-1.024-2.134-.948-3.315-.073-1.188.262-2.366.951-3.337.642-.798 1.627-1.24 2.649-1.19zm-1.624 7.053c.413.57 1.088.891 1.79.851.729.067 1.449-.203 1.954-.733.464-.698.678-1.532.608-2.367v-.278c.08-.922-.135-1.845-.615-2.636-.49-.562-1.22-.855-1.962-.789-.708-.033-1.38.309-1.771.899-.454.767-.668 1.652-.615 2.541-.059.88.154 1.757.611 2.512zm11.984-7.055c1.099-.05 2.162.395 2.898 1.213.755.923 1.138 2.094 1.075 3.284.073 1.201-.309 2.385-1.07 3.317-.76.816-1.842 1.253-2.956 1.194-.727.014-1.443-.176-2.068-.548-.612-.372-1.099-.918-1.399-1.569-.344-.752-.512-1.572-.493-2.398-.073-1.197.307-2.378 1.063-3.309.76-.811 1.84-1.245 2.95-1.184zm-1.982 7.034c.978 1.083 2.648 1.168 3.731.191.067-.06.13-.124.191-.191.496-.75.732-1.643.67-2.541.061-.89-.175-1.775-.67-2.517-.481-.589-1.218-.909-1.977-.859-.749-.05-1.476.266-1.95.847-.492.749-.724 1.639-.659 2.533-.061.895.172 1.786.664 2.537zm11.589-7.032c.979-.046 1.927.348 2.585 1.074.661.792 1 1.804.951 2.835v.832h-5.985c-.036.843.239 1.67.773 2.323.542.55 1.295.839 2.065.792.955-.004 1.899-.203 2.774-.586v1.173c-.424.187-.866.332-1.319.431-.495.096-.999.14-1.504.132-1.134.059-2.24-.368-3.04-1.173-.785-.898-1.185-2.068-1.114-3.258-.064-1.201.303-2.384 1.035-3.338.684-.822 1.711-1.28 2.779-1.237zm2.125 3.671c.046-.681-.151-1.356-.556-1.906-.397-.454-.982-.699-1.585-.662-.629-.028-1.239.222-1.669.683-.445.531-.703 1.193-.733 1.885h4.543zm7.553 2.049c-.53-.362-1.108-.648-1.717-.851-.6-.204-1.178-.468-1.725-.789-.309-.193-.57-.455-.761-.765-.172-.312-.258-.665-.249-1.022-.019-.67.307-1.304.863-1.678.707-.445 1.536-.66 2.37-.613.944.002 1.877.196 2.743.571l-.468 1.069c-.748-.331-1.553-.514-2.37-.539-.488-.03-.976.071-1.412.294-.296.16-.48.471-.476.808-.007.214.056.424.179.599.156.195.351.354.574.468.493.247 1.001.461 1.522.642.769.226 1.481.612 2.09 1.133.364.386.559.901.544 1.431.036.736-.302 1.44-.899 1.871-.755.481-1.643.711-2.537.657-.931.049-1.86-.139-2.698-.548v-1.22c.428.216.878.383 1.343.5.452.118.916.179 1.383.182.548.031 1.095-.082 1.586-.329.538-.32.715-1.016.395-1.554-.072-.122-.167-.23-.28-.317zm9.348-4.376h.064c.274-.435.668-.782 1.134-.999.507-.24 1.063-.361 1.625-.353.856-.065 1.704.207 2.363.756.585.664.872 1.54.792 2.422v5.667h-1.316v-5.611c.044-.57-.128-1.137-.483-1.586-.408-.38-.958-.569-1.514-.522-.743-.065-1.476.206-1.998.737-.488.713-.712 1.574-.634 2.434v4.557h-1.316v-8.693h1.069l.214 1.191zm12.209-1.346c1.099-.05 2.162.395 2.898 1.213.755.922 1.139 2.094 1.075 3.284.073 1.201-.309 2.385-1.07 3.317-.76.816-1.842 1.253-2.955 1.194-.727.014-1.443-.176-2.068-.548-.612-.372-1.099-.918-1.399-1.569-.344-.752-.512-1.572-.493-2.398-.073-1.197.306-2.378 1.063-3.309.759-.811 1.839-1.245 2.949-1.184zm-1.981 7.034c.978 1.083 2.649 1.168 3.731.19.066-.06.129-.123.189-.19.496-.75.732-1.643.67-2.541.061-.89-.175-1.775-.67-2.517-.481-.589-1.218-.909-1.977-.859-.749-.05-1.476.266-1.95.847-.492.749-.723 1.639-.658 2.533-.061.895.173 1.786.665 2.537zm8.916-8.89h.76v2.013h2.521v1.023h-2.526v5.113c-.029.434.104.864.374 1.205.26.288.637.444 1.025.424.225 0 .451-.017.673-.051.174-.025.347-.061.517-.108v1.003c-.201.085-.413.142-.629.17-.247.043-.498.065-.749.068-1.681 0-2.521-.885-2.521-2.655v-5.168h-1.245v-.634l1.245-.548.555-1.855zm12.62 1.858c.979-.046 1.927.348 2.585 1.074.661.792 1 1.804.951 2.835v.832h-5.985c-.036.843.239 1.67.773 2.323.542.55 1.295.839 2.065.792.955-.004 1.899-.203 2.774-.586v1.173c-.424.187-.866.332-1.319.431-.495.096-.999.14-1.504.132-1.134.059-2.24-.368-3.04-1.173-.785-.898-1.185-2.068-1.114-3.258-.064-1.201.303-2.384 1.035-3.338.684-.822 1.711-1.28 2.779-1.237zm2.126 3.671c.046-.681-.151-1.356-.556-1.906-.397-.454-.982-.698-1.584-.662h-.001c-.629-.028-1.239.222-1.669.683-.445.531-.703 1.193-.733 1.885h4.543zm2.727-3.512h1.499l2.291 3.329 2.283-3.329h1.482l-3.02 4.24 3.18 4.447h-1.491l-2.433-3.52-2.458 3.52h-1.495l3.182-4.447-3.02-4.24zm10.645-3.017c.166.177.249.416.23.657.019.243-.064.483-.23.662-.147.142-.343.22-.548.218-.207.006-.408-.073-.556-.218-.159-.181-.237-.419-.218-.658-.021-.242.059-.481.222-.661.314-.279.787-.279 1.1 0zm.106 11.704h-1.316v-8.693h1.316v8.693zm6.686-3.126c-.53-.362-1.108-.648-1.717-.851-.6-.204-1.178-.468-1.725-.789-.309-.193-.57-.455-.761-.765-.172-.312-.258-.665-.249-1.022-.019-.67.307-1.304.863-1.678.707-.445 1.535-.66 2.37-.613.943.002 1.877.196 2.743.571l-.468 1.069c-.748-.331-1.553-.514-2.37-.539-.488-.03-.976.071-1.412.294-.296.16-.48.471-.476.808-.007.214.056.424.179.599.156.195.351.354.574.468.493.247 1.001.461 1.522.642.769.226 1.481.612 2.09 1.133.363.386.559.901.544 1.431.036.736-.302 1.44-.899 1.871-.755.481-1.643.711-2.537.657-.931.049-1.86-.139-2.698-.548v-1.22c.428.216.878.383 1.343.5.452.118.916.179 1.383.182.548.031 1.095-.082 1.586-.329.538-.32.715-1.016.395-1.554-.072-.122-.167-.23-.28-.317zm4.5-7.578h.761v2.013h2.521v1.023h-2.521v5.113c-.029.434.104.864.374 1.205.259.287.633.442 1.019.424.226 0 .451-.017.673-.051.174-.025.347-.061.517-.108v1.003c-.201.085-.413.142-.629.17-.248.043-.498.065-.749.068-1.681 0-2.521-.885-2.521-2.655v-5.168h-1.245v-.634l1.245-.548.555-1.855zm3.039-7.361c-.13-.342-.119-.715.03-1.049.304-.676 1.108-.986 1.787-.702.015.007 1.205.526 3.223 1.253.344.124.621.375.777.706.156.331.175.704.051 1.048-.196.544-.713.907-1.29.907h-.006v-.001c-.156-.001-.31-.028-.459-.08-2.192-.791-3.385-1.316-3.395-1.32-.332-.148-.588-.419-.718-.762zm2.786 16.153c.267-.015.528.084.717.274.185.224.277.51.258.799.019.288-.075.572-.262.792-.387.36-.982.372-1.383.028-.199-.225-.295-.522-.267-.82-.02-.287.067-.572.243-.799.179-.191.433-.291.694-.274zm8.982-14.088c.318-.184.687-.234 1.04-.14 1.133.302 2.273.582 3.39.832.356.08.662.294.858.602.196.309.26.676.181 1.033-.141.631-.689 1.071-1.337 1.071h-.005c-.1 0-.2-.012-.301-.033-1.168-.264-2.341-.552-3.488-.858-.353-.094-.649-.319-.833-.635-.183-.316-.233-.686-.139-1.04.092-.352.318-.647.634-.832zm12.426 2.11c1.19.15 2.352.27 3.453.355.366.029.697.2.934.479.237.28.35.634.32 1-.059.712-.642 1.253-1.358 1.258l-.201.001v-.013c-1.179-.094-2.349-.215-3.492-.36-.749-.095-1.282-.782-1.188-1.533.094-.749.769-1.29 1.532-1.187zm15.397-189.673l8.45 8.45c.534.536.533 1.406-.001 1.939-.259.258-.603.401-.968.401h-.482l.065-.066c-.206-.066-.397-.181-.552-.336l-8.449-8.449c-.531-.539-.525-1.408.013-1.938.531-.523 1.393-.524 1.924-.001zm7.472 24.734h.01c.366.002.709.147.966.408.523.531.523 1.393 0 1.924l-8.45 8.449c-.257.259-.601.402-.968.402-.366 0-.71-.143-.969-.402-.26-.259-.401-.604-.401-.969 0-.366.142-.709.4-.968l8.449-8.449c.26-.256.601-.395.963-.395zm-16.362-6.01c-.259-.259-.4-.604-.399-.97.001-.752.615-1.366 1.368-1.368h11.948c.756.002 1.37.618 1.369 1.374-.003.753-.617 1.366-1.369 1.368h-11.948c-.366-.001-.71-.144-.969-.404zm24.712-11.39c-.756 0-1.372-.615-1.372-1.371v-11.947c-.001-.756.613-1.372 1.369-1.374h.003c.754 0 1.368.613 1.371 1.368v11.956c-.004.754-.619 1.367-1.371 1.368zm1.371 34.166c-.004.754-.619 1.368-1.371 1.368-.756 0-1.372-.615-1.372-1.371v-11.945c-.001-.755.613-1.371 1.368-1.374h.003c.754 0 1.369.614 1.372 1.368v11.954zm5.597-32.082c0-.36.146-.712.401-.968l8.449-8.449c.259-.255.6-.395.963-.395h.01c.366.002.708.147.966.407.522.531.522 1.394 0 1.924l-8.45 8.45c-.254.255-.607.402-.968.402-.756 0-1.371-.615-1.371-1.371zm10.785 26.099c-.254.255-.606.401-.967.401h-.482l.064-.065c-.206-.065-.394-.18-.551-.338l-8.449-8.447c-.258-.261-.398-.606-.395-.973.002-.366.147-.709.408-.966.531-.523 1.393-.523 1.924 0l8.45 8.449c.534.536.533 1.405-.002 1.939zm5.487 44.913c-.259.258-.602.401-.966.401h-.005c-.364 0-.707-.142-.966-.401l-4.517-4.516-4.515 4.515c-.255.256-.607.402-.968.402-.756 0-1.371-.616-1.371-1.372.001-.36.147-.713.401-.967l4.515-4.515-4.513-4.512c-.26-.257-.404-.599-.406-.965-.003-.366.137-.71.394-.971.257-.26.6-.406.966-.408h.01c.362 0 .703.14.961.394l4.526 4.523 4.515-4.515c.256-.26.599-.405.965-.407h.01c.362 0 .703.14.961.394.538.53.543 1.399.014 1.938l-4.527 4.527 4.518 4.515c.534.537.533 1.406-.002 1.94zm-47.578 15.083H428.019c.365 0 .708.142.967.4s.402.602.403.968c.001.365-.141.709-.399.969s-.601.403-.967.404H394.427c-.365 0-.708-.142-.967-.4-.26-.259-.402-.602-.403-.968-.002-.754.611-1.37 1.366-1.373zm.001 13.931h5.575c.365 0 .708.141.967.399.26.258.402.602.403.969.001.365-.14.709-.399.969-.258.26-.602.402-.968.403h-5.574c-.365 0-.708-.141-.967-.399-.26-.259-.402-.602-.403-.969-.001-.365.14-.709.399-.969.256-.26.601-.402.967-.403zm.005 14.664h55.753c.755 0 1.37.615 1.37 1.37 0 .755-.615 1.37-1.37 1.37h-55.753c-.755 0-1.37-.615-1.37-1.37 0-.755.614-1.37 1.37-1.37zm4.634 66.032c1.146-.062 2.299-.165 3.424-.304.75-.102 1.435.441 1.529 1.19.093.749-.442 1.436-1.191 1.529-1.198.148-2.414.257-3.615.322l-.073.003h-.02c-.746 0-1.358-.601-1.37-1.349-.014-.738.578-1.363 1.316-1.391zm16.915-37.017c.288-.009.591.016.885.048 1.939-6.858 9.056-10.921 15.965-9.069 3.646.979 6.674 3.47 8.338 6.851 2.272-1.293 4.909-1.652 7.454-1.011 2.614.66 4.814 2.297 6.196 4.611 2.852 4.778 1.286 10.986-3.491 13.838-1.564.934-3.353 1.428-5.173 1.428h-.011l-31.062-.003c-.215 0-.428-.052-.62-.148-2.18-.404-4.075-1.628-5.338-3.452-1.268-1.832-1.748-4.047-1.35-6.241.72-3.971 4.171-6.852 8.207-6.852zm-1.555 13.73c.27.078.549.136.831.173.079.008.163.024.246.05H446.147c4.05 0 7.346-3.292 7.35-7.342.002-1.963-.761-3.809-2.148-5.199-1.387-1.389-3.232-2.155-5.195-2.157h-.008c-1.725 0-3.401.61-4.723 1.718-.347.295-.816.395-1.256.268-.436-.125-.783-.457-.925-.887-1.79-5.405-7.64-8.346-13.052-6.557-3.637 1.206-6.294 4.301-6.935 8.077-.062.384-.289.726-.62.935-.33.206-.735.261-1.107.158-1.439-.414-2.952-.246-4.262.478-1.309.723-2.259 1.913-2.674 3.351-.854 2.967.863 6.077 3.831 6.934zm-4.152 21.268c1.094-.361 2.161-.772 3.171-1.22.688-.307 1.501.007 1.808.699.148.335.158.707.026 1.049-.132.342-.389.612-.724.76-1.12.493-2.271.936-3.424 1.316-.101.032-.201.053-.302.062l-.002.005-.125.002c-.756 0-1.371-.615-1.371-1.371.001-.593.38-1.116.943-1.302zm12.438-7.544c.558-.519 1.427-.491 1.943.06.491.525.491 1.348.001 1.872-.87.87-1.795 1.698-2.753 2.463-.241.192-.545.299-.854.299h-.005c-.753-.004-1.365-.619-1.364-1.373 0-.418.187-.807.514-1.068.88-.703 1.728-1.46 2.518-2.253zm36.546-56.469h8.064c.755 0 1.37.615 1.37 1.37 0 .755-.615 1.37-1.37 1.37h-8.064c-.755 0-1.37-.615-1.37-1.37 0-.755.615-1.37 1.37-1.37z" fill-rule="evenodd" clip-rule="evenodd" fill="black"/></svg>