<?xml version="1.0" standalone="no"?>
<!DOCTYPE svg PUBLIC "-//W3C//DTD SVG 20010904//EN"
 "http://www.w3.org/TR/2001/REC-SVG-20010904/DTD/svg10.dtd">
<svg version="1.0" xmlns="http://www.w3.org/2000/svg"
 width="1920.000000pt" height="1080.000000pt" viewBox="0 0 1920.000000 1080.000000"
 preserveAspectRatio="xMidYMid meet">

<g transform="translate(0.000000,1080.000000) scale(0.100000,-0.100000)"
fill="#000000" stroke="none">
<path d="M0 5400 l0 -5400 9600 0 9600 0 0 5400 0 5400 -9600 0 -9600 0 0
-5400z m11783 2195 c34 -19 68 -39 75 -43 10 -7 9 -18 -4 -54 l-17 -45 -41 23
c-54 31 -96 31 -126 -1 -20 -22 -49 -138 -202 -833 -97 -444 -178 -819 -178
-834 0 -43 30 -106 63 -132 l30 -24 -17 -48 c-9 -26 -16 -49 -16 -51 0 -14 52
35 56 53 7 26 12 28 31 16 9 -6 -2 -23 -37 -57 l-50 -49 0 -227 0 -227 34 34
c19 19 41 34 50 34 10 0 20 18 30 53 55 195 78 272 85 285 6 11 15 -5 31 -54
35 -109 87 -211 119 -233 23 -17 38 -20 74 -15 39 6 48 3 76 -22 20 -19 32
-41 34 -62 5 -40 11 -47 27 -27 7 8 19 15 27 15 8 0 28 11 43 24 19 16 47 26
87 30 75 9 138 34 149 60 13 30 65 29 80 -2 11 -22 11 -22 39 18 26 38 30 40
64 34 47 -9 113 -38 127 -55 6 -8 22 -54 35 -103 l24 -89 6 69 c5 68 6 67 7
-28 1 -54 5 -98 10 -98 20 1 41 30 44 61 3 31 5 29 17 -26 7 -33 18 -63 25
-67 6 -4 31 -8 55 -8 56 0 112 -32 142 -80 20 -32 62 -60 249 -168 124 -71
233 -132 243 -135 25 -9 63 8 82 36 8 13 94 384 191 823 188 854 191 873 147
932 -17 23 -60 56 -129 98 -15 9 -12 13 27 37 73 44 20 30 -66 -17 l-79 -44
-67 121 -66 122 -159 82 c-88 45 -165 83 -172 83 -9 0 -9 -8 3 -31 l16 -31
-43 25 c-24 14 -218 127 -433 250 l-390 224 -17 59 c-10 33 -17 62 -15 65 1 3
269 -149 596 -338 411 -238 599 -342 612 -338 17 6 39 59 39 96 0 72 80 267
134 327 17 19 21 37 21 95 0 66 2 72 20 70 11 -1 35 3 53 8 28 9 37 8 53 -7
10 -9 19 -26 19 -37 0 -11 8 -26 18 -33 16 -12 16 -14 -2 -48 -21 -40 -16 -76
9 -56 12 10 15 9 15 -8 0 -15 19 -34 59 -61 34 -23 63 -52 69 -68 16 -41 32
-207 21 -211 -5 -2 -9 -39 -9 -82 0 -98 -12 -127 -59 -140 -20 -5 -42 -10 -49
-10 -17 0 -72 -32 -72 -41 0 -4 28 -24 63 -44 34 -20 73 -52 87 -71 47 -70 48
-67 -159 -1009 -127 -578 -198 -878 -210 -895 -26 -36 -61 -51 -103 -46 -33 3
-36 2 -23 -11 22 -21 18 -58 -7 -87 -17 -18 -1310 -771 -1485 -865 -41 -21
-129 -33 -170 -22 -36 10 -1535 869 -1560 894 -12 13 -36 189 -31 234 3 37
-41 123 -63 123 -20 0 -31 -78 -30 -227 l0 -91 -57 -6 c-96 -11 -172 22 -172
75 0 25 -3 29 -19 24 -47 -15 -81 27 -81 101 0 19 -17 33 -89 75 -157 91 -149
119 71 244 84 48 164 95 178 105 14 9 31 15 38 13 17 -6 58 22 73 49 7 12 12
35 11 51 0 18 4 27 11 24 7 -2 24 5 40 15 l27 19 0 -25 c0 -14 3 -26 6 -26 3
0 218 122 477 272 260 150 488 278 507 285 43 15 119 17 156 2 27 -9 27 -9 12
8 -31 35 -48 83 -48 132 0 53 370 1754 390 1790 14 28 68 61 98 61 13 0 51
-16 85 -35z m74 -546 c113 -43 280 -25 370 40 l40 29 27 -126 c18 -85 32 -131
44 -140 9 -7 26 -19 37 -26 27 -19 11 -32 -20 -18 -26 12 -26 12 -19 -26 16
-86 14 -84 140 -154 130 -73 154 -90 136 -96 -10 -3 -102 44 -246 126 -16 9 7
-43 25 -56 23 -16 25 -37 4 -28 -10 4 -15 -1 -15 -14 0 -13 17 -31 50 -51 66
-40 70 -71 4 -33 l-46 27 4 -24 c2 -17 17 -31 50 -49 27 -14 48 -31 48 -37 0
-17 -4 -17 -52 8 -35 18 -40 19 -34 4 3 -9 6 -20 6 -24 0 -4 16 -15 35 -24 19
-9 35 -23 35 -32 0 -19 -5 -19 -35 1 -24 16 -25 15 -25 -5 0 -13 14 -30 40
-46 22 -14 40 -30 40 -35 0 -14 -6 -13 -42 6 l-31 16 6 -38 c3 -22 9 -64 12
-94 4 -30 9 -62 12 -70 8 -23 15 -200 9 -226 -3 -12 -18 -37 -32 -54 l-27 -31
-48 47 c-44 44 -50 47 -74 36 -24 -11 -25 -16 -25 -92 l0 -79 -57 -18 c-82
-26 -313 -25 -400 1 l-63 19 0 77 c0 72 -2 77 -25 90 -24 13 -28 11 -69 -29
-24 -24 -49 -40 -55 -36 -24 14 -51 85 -51 133 0 103 106 770 171 1076 16 77
29 141 29 143 0 3 13 -7 30 -20 16 -14 56 -35 87 -48z m-1324 -79 c54 -34 98
-91 138 -177 16 -35 33 -63 38 -63 20 0 75 -56 92 -95 25 -55 25 -129 -1 -155
-11 -11 -30 -20 -42 -20 -24 0 -427 228 -484 274 -38 30 -69 84 -79 139 -15
79 51 114 114 61 22 -19 31 -22 31 -11 0 8 13 29 29 46 40 43 98 43 164 1z
m1873 -86 c35 -20 64 -43 64 -51 0 -11 -19 -5 -72 25 -68 37 -95 62 -68 62 6
0 41 -16 76 -36z m178 -100 c43 -24 59 -44 35 -44 -16 0 -99 51 -99 61 0 14
14 11 64 -17z m-91 -93 c53 -30 72 -51 46 -51 -13 0 -138 68 -161 88 -28 24
-9 34 25 14 18 -11 58 -34 90 -51z m272 -7 c60 -33 81 -54 54 -54 -17 0 -139
71 -139 81 0 16 17 10 85 -27z m225 -125 c83 -46 109 -69 78 -69 -19 1 -181
95 -186 108 -7 21 17 13 108 -39z m-465 -31 c41 -23 75 -48 75 -55 0 -18 0
-18 -72 23 -71 41 -88 53 -88 65 0 14 5 12 85 -33z m158 -87 c23 -12 38 -41
21 -41 -16 0 -64 36 -64 48 0 8 3 12 8 10 4 -2 19 -10 35 -17z m-84 -99 c58
-33 87 -62 64 -62 -16 0 -137 75 -141 88 -6 19 8 14 77 -26z m-7124 -159 c0
-40 -2 -208 -3 -373 l-2 -300 -70 0 -70 0 0 375 0 376 73 -3 72 -3 0 -72z
m1133 10 c-4 -70 -21 -117 -61 -167 l-23 -29 -30 19 c-16 10 -31 19 -33 21 -2
1 4 19 14 38 9 20 19 70 22 111 l6 74 55 0 54 0 -4 -67z m6081 -49 c8 -8 12
-16 8 -20 -10 -10 -152 72 -155 91 -3 13 11 9 65 -20 37 -21 74 -44 82 -51z
m-6389 -44 l0 -70 45 0 45 0 0 -50 0 -50 -45 0 -45 0 0 -142 c0 -79 4 -149 9
-157 5 -8 25 -15 45 -15 l36 -1 0 -51 c0 -59 -6 -64 -78 -64 -62 0 -113 26
-134 70 -15 29 -18 63 -18 198 l0 162 -40 0 -40 0 0 50 0 50 40 0 40 0 0 70 0
70 70 0 70 0 0 -70z m4266 -26 c197 -114 194 -112 188 -128 -7 -18 -192 -122
-211 -118 -10 2 -12 -1 -7 -9 4 -8 3 -10 -5 -5 -6 4 -35 -6 -65 -23 -67 -39
-95 -39 -164 1 -30 17 -65 32 -77 33 -22 3 -201 101 -211 116 -8 13 21 34 182
129 110 65 159 88 185 89 29 1 69 -18 185 -85z m2225 19 c30 -18 35 -28 21
-37 -11 -7 -72 31 -72 44 0 15 18 12 51 -7z m552 -52 c-2 -49 -92 -131 -128
-117 -18 6 -12 26 27 83 15 23 28 46 28 52 0 9 44 20 65 16 6 -1 9 -17 8 -34z
m-8133 -65 l0 -63 -135 -49 c-74 -26 -135 -51 -135 -54 0 -3 61 -28 135 -54
l135 -49 0 -64 c0 -36 -4 -63 -9 -61 -4 2 -99 41 -210 88 l-201 85 0 55 0 55
203 87 c111 47 205 86 210 87 4 1 7 -28 7 -63z m708 49 c82 -35 122 -101 129
-217 l6 -78 -167 0 c-183 0 -184 -1 -149 -61 19 -32 68 -59 107 -59 30 0 92
24 116 44 13 11 20 7 49 -26 l33 -38 -31 -29 c-70 -66 -221 -80 -312 -30 -90
50 -139 158 -124 276 12 101 64 180 140 214 50 23 152 25 203 4z m997 -4 c42
-19 95 -72 95 -96 0 -7 3 -20 6 -29 5 -14 -4 -16 -63 -16 -64 0 -71 2 -81 24
-24 53 -120 54 -144 1 -17 -38 10 -60 98 -81 91 -22 141 -49 171 -93 56 -83 2
-189 -112 -220 -141 -38 -284 22 -310 132 l-7 27 66 0 c60 0 67 -2 77 -24 31
-67 169 -59 169 9 0 31 -15 41 -96 63 -141 39 -194 85 -194 168 0 53 32 101
89 131 57 30 175 32 236 4z m5685 -43 c59 -33 83 -58 55 -58 -19 0 -135 69
-135 80 0 17 19 11 80 -22z m834 -47 c-8 -33 -86 -111 -113 -111 -30 0 -27 34
8 95 28 50 30 51 70 47 38 -4 40 -6 35 -31z m-2714 -76 c0 -8 -7 -15 -15 -15
-9 0 -12 6 -9 15 4 8 10 15 15 15 5 0 9 -7 9 -15z m-40 -23 c0 -13 -12 -22
-22 -16 -10 6 -1 24 13 24 5 0 9 -4 9 -8z m-40 -21 c0 -12 -20 -25 -27 -18 -7
7 6 27 18 27 5 0 9 -4 9 -9z m1050 -55 c0 -2 -8 -10 -17 -17 -16 -13 -17 -12
-4 4 13 16 21 21 21 13z m849 -52 c3 -16 1 -17 -13 -5 -19 16 -21 34 -3 29 6
-3 14 -13 16 -24z m-1029 -127 c0 -1 -26 -27 -57 -57 l-58 -55 55 58 c50 53
60 62 60 54z m-5150 -602 l0 -375 -65 0 c-63 0 -65 1 -65 25 0 31 -3 31 -44 0
-71 -54 -171 -42 -234 30 -47 54 -66 114 -66 210 0 99 19 160 68 211 67 69
155 80 231 28 l35 -23 0 134 0 135 70 0 70 0 0 -375z m945 318 c-3 -10 -55
-162 -115 -338 -60 -176 -116 -341 -125 -367 l-17 -48 -50 0 c-44 0 -49 2 -43
18 4 9 50 143 102 297 52 154 109 319 125 368 l30 87 50 0 c44 0 49 -2 43 -17z
m6966 -144 c49 -28 94 -59 99 -69 6 -11 10 -131 10 -294 0 -240 -2 -276 -15
-276 -8 0 -87 42 -175 93 -111 64 -162 100 -170 117 -6 16 -9 95 -8 207 l3
182 68 -39 c38 -22 73 -40 78 -40 5 0 9 38 9 85 0 47 3 85 6 85 4 0 47 -23 95
-51z m-9136 -29 c31 -12 84 -59 99 -89 8 -14 16 -42 18 -61 l3 -35 -62 -3
c-57 -3 -62 -1 -68 20 -22 70 -108 93 -156 42 -22 -24 -24 -33 -24 -131 l0
-105 34 -30 c28 -25 40 -29 68 -25 41 7 62 22 74 54 8 21 15 23 74 23 73 0 75
-3 46 -66 -26 -57 -67 -92 -130 -111 -119 -34 -231 11 -287 117 -15 28 -19 57
-19 145 0 102 2 113 28 157 48 82 129 122 226 112 30 -3 64 -10 76 -14z m494
9 c71 -15 123 -57 157 -125 51 -105 33 -265 -39 -342 -82 -88 -262 -93 -349
-8 -59 57 -73 97 -73 211 0 108 11 141 64 198 59 65 142 87 240 66z m1181 -19
c71 -36 105 -102 117 -222 l6 -68 -172 0 -172 0 6 -22 c28 -94 131 -123 219
-63 l34 23 31 -32 c17 -18 31 -37 31 -43 0 -19 -66 -64 -116 -79 -126 -38
-261 13 -316 119 -29 57 -36 166 -14 239 42 147 209 218 346 148z m803 -70
l198 -83 -3 -56 -3 -55 -208 -87 -208 -87 3 65 3 66 132 46 c73 26 134 49 137
52 3 2 -58 26 -134 53 l-140 48 0 65 c0 48 3 64 13 60 6 -2 101 -42 210 -87z
m2437 -1564 c0 -28 -43 -68 -108 -99 -48 -24 -75 -17 -80 21 -3 17 3 21 30 24
24 2 34 9 38 26 6 29 44 51 88 52 27 0 32 -4 32 -24z m270 -31 c21 -25 0 -54
-71 -96 -50 -29 -78 -39 -102 -37 -29 3 -32 6 -32 38 0 31 3 35 35 41 18 4 39
15 46 23 6 9 31 23 55 30 57 18 55 18 69 1z"/>
<path d="M13537 6788 c-21 -55 -38 -121 -33 -125 2 -2 18 30 36 73 20 49 28
80 22 86 -6 6 -15 -6 -25 -34z"/>
<path d="M13857 6636 c-5 -21 -6 -40 -3 -43 9 -10 18 24 14 54 -3 26 -4 25
-11 -11z"/>
<path d="M11157 5556 c-16 -13 -15 -15 16 -33 32 -20 35 -20 67 -3 l34 18 -32
16 c-37 19 -61 20 -85 2z"/>
<path d="M11042 5488 l-54 -31 29 -17 c15 -10 47 -20 70 -24 39 -6 43 -4 60
24 9 16 21 30 25 30 17 0 7 17 -21 33 -39 23 -47 22 -109 -15z"/>
<path d="M10905 5423 c-16 -9 -25 -17 -20 -18 6 -2 29 -8 52 -15 39 -12 45
-11 63 5 l21 19 -23 13 c-31 17 -57 16 -93 -4z"/>
<path d="M10607 5251 c-63 -37 -63 -37 -33 -56 34 -22 56 -9 72 44 6 23 11 41
10 40 0 0 -22 -13 -49 -28z"/>
<path d="M10443 5157 c-29 -17 -53 -34 -53 -38 0 -4 20 -19 45 -32 25 -14 45
-22 45 -18 0 4 20 27 44 52 34 32 42 47 34 56 -17 21 -59 13 -115 -20z"/>
<path d="M10183 4968 c-51 -70 -52 -72 -31 -86 11 -8 37 -41 59 -74 l38 -60
95 129 c53 70 96 131 96 134 0 5 -165 29 -197 29 -5 0 -32 -32 -60 -72z"/>
<path d="M11350 4976 c0 -15 8 -30 21 -36 32 -18 34 -4 5 30 l-26 32 0 -26z"/>
<path d="M9809 4702 c-3 -24 -1 -46 4 -49 16 -10 19 5 9 49 l-9 43 -4 -43z"/>
<path d="M13069 4453 c4 -18 21 -35 43 -48 32 -17 39 -18 62 -5 14 7 26 16 26
19 0 10 -99 61 -119 61 -16 0 -18 -5 -12 -27z"/>
<path d="M13080 4366 c0 -14 -8 -41 -17 -61 -16 -34 -16 -36 3 -50 10 -8 25
-15 31 -15 16 0 113 59 113 69 0 4 -15 15 -32 25 -18 10 -48 28 -65 38 l-33
20 0 -26z"/>
<path d="M12990 4219 c-24 -16 -50 -29 -58 -29 -22 0 -8 -25 16 -28 20 -3 106
40 117 58 3 5 -2 13 -12 18 -13 7 -30 2 -63 -19z"/>
<path d="M12694 4219 c-16 -10 -42 -21 -57 -25 -28 -6 -23 -10 72 -66 l102
-59 54 31 c30 17 57 35 59 39 7 10 -52 38 -95 45 -21 4 -53 17 -72 30 -34 24
-35 24 -63 5z"/>
<path d="M12630 4105 c0 -26 -4 -55 -10 -65 -8 -14 -4 -21 17 -35 26 -17 28
-17 77 10 28 15 56 32 61 37 11 10 13 8 -82 63 l-63 36 0 -46z"/>
<path d="M12288 4055 l-27 -23 54 -31 c65 -37 76 -39 47 -8 -11 12 -27 36 -34
54 l-13 31 -27 -23z"/>
<path d="M12400 3953 c0 -6 110 -63 123 -63 8 0 25 8 38 19 l23 18 -23 12
c-18 10 -161 22 -161 14z"/>
<path d="M11812 6880 c-29 -12 -52 -66 -52 -123 0 -96 57 -187 117 -187 25 0
25 1 -14 43 -63 69 -81 188 -37 255 8 12 13 22 12 21 -2 0 -13 -4 -26 -9z"/>
<path d="M11790 6473 c-31 -11 -60 -48 -76 -96 -24 -72 -15 -204 18 -279 32
-69 93 -133 138 -142 39 -7 64 8 27 18 -37 9 -102 86 -128 152 -18 47 -23 79
-23 154 -1 96 11 136 52 183 16 18 16 19 -8 10z"/>
<path d="M10310 6019 c-115 -62 -114 -59 -19 -113 45 -25 87 -46 94 -46 7 0
49 21 94 46 95 54 96 51 -19 113 l-75 40 -75 -40z m94 -68 c7 -11 -14 -20 -31
-13 -7 2 -10 8 -7 13 7 12 31 12 38 0z"/>
<path d="M5767 5919 c-19 -11 -47 -60 -47 -84 0 -12 16 -15 95 -15 l95 0 0 30
c0 62 -84 103 -143 69z"/>
<path d="M6062 4997 c-12 -13 -27 -48 -34 -78 -28 -135 36 -239 128 -209 55
18 64 41 64 158 0 96 -2 105 -25 127 -33 34 -102 35 -133 2z"/>
<path d="M5502 4998 c-30 -33 -42 -72 -42 -139 0 -82 20 -126 67 -145 49 -21
91 -9 120 34 45 67 38 197 -12 248 -33 33 -102 34 -133 2z"/>
<path d="M6632 4998 c-24 -26 -44 -73 -35 -82 4 -3 48 -6 100 -6 87 0 93 1 93
20 0 29 -26 76 -45 84 -37 14 -91 6 -113 -16z"/>
</g>
</svg>
