<?xml version="1.0" encoding="utf-8"?>
<!-- Generator: Adobe Illustrator 23.0.6, SVG Export Plug-In . SVG Version: 6.00 Build 0)  -->
<svg version="1.1" id="Layer_1" xmlns="http://www.w3.org/2000/svg" xmlns:xlink="http://www.w3.org/1999/xlink" x="0px" y="0px"
	 viewBox="0 0 100 100" style="enable-background:new 0 0 100 100;" xml:space="preserve">
<style type="text/css">
	.st0{fill:white;}
	.st1{fill:#e9ecf04b;}
	.st2{fill:none;stroke:#1E243A;stroke-width:0.9178;stroke-linecap:round;stroke-linejoin:round;stroke-miterlimit:10;}
	.st3{fill:white;}
</style>
<g>
	<g>
		<g>
			<rect x="26.3" y="70" class="st0" width="7.5" height="4.5"/>
		</g>
	</g>
</g>
<g>
	<g>
		<g>
			<g>
				<polygon class="st0" points="84.8,57.9 78.9,63.8 74.9,59.7 71,63.7 71,72.1 93.9,72.1 93.9,61.2 91,64 				"/>
			</g>
		</g>
	</g>
</g>
<g>
	<g>
		<g>
			<path class="st1" d="M28.4,9.6H2c-0.6,0-1,0.4-1,1V37c0,0.6,0.4,1,1,1h21.4L23,23.8c0.3-3,1.1-4.9,2.4-5.5
				c1.1-0.8,2.4-1.1,3.9-1.2v-6.5C29.4,10,29,9.6,28.4,9.6z"/>
		</g>
	</g>
</g>
<g>
	<g>
		<g>
			<path class="st1" d="M96.1,48.3H70.9v4.2h26.8V50C97.8,49,97,48.3,96.1,48.3z"/>
		</g>
	</g>
</g>
<g>
	<g>
		<g>
			<path class="st2" d="M70.6,42.5"/>
		</g>
	</g>
</g>
<g>
	<g>
		<g>
			<g>
				<g>
					<path class="st3" d="M70.8,77.2H23.3c-0.1,0-0.3-0.1-0.3-0.2c-0.1-0.1-0.1-0.2-0.1-0.4l0-0.2V22.4c0-3,2.4-5.4,5.4-5.4
						c3,0,5.4,2.4,5.4,5.4c0,1.8-0.9,3.5-2.4,4.4h39.6c0.3,0,0.5,0.2,0.5,0.5c0,0.1,0,0.1,0,0.2c0,0,0,0.1,0,0.1v49.2
						C71.3,77,71.1,77.2,70.8,77.2z M23.8,76.3h46.6V27.7H28.3c-0.3,0-0.5-0.2-0.5-0.5c0-0.3,0.2-0.5,0.5-0.5c2.4,0,4.4-2,4.4-4.4
						c0-2.5-2-4.4-4.5-4.4c-2.5,0-4.5,2-4.5,4.4V76.3z"/>
				</g>
			</g>
		</g>
		<g>
			<g>
				<g>
					<path class="st3" d="M70.9,27.7c-0.3,0-0.5-0.2-0.5-0.5c0-0.3,0.2-0.5,0.5-0.5c2.5,0,4.4-2,4.4-4.4c0-2.5-2-4.4-4.4-4.4
						c-0.3,0-0.5-0.2-0.5-0.5c0-0.3,0.2-0.5,0.5-0.5c3,0,5.4,2.4,5.4,5.4C76.2,25.3,73.8,27.7,70.9,27.7z"/>
				</g>
			</g>
		</g>
		<g>
			<g>
				<g>
					<path class="st3" d="M70.8,17.9H28.2c-0.3,0-0.5-0.2-0.5-0.5c0-0.3,0.2-0.5,0.5-0.5h42.6c0.3,0,0.5,0.2,0.5,0.5
						C71.3,17.7,71.1,17.9,70.8,17.9z"/>
				</g>
			</g>
		</g>
		<g>
			<g>
				<g>
					<g>
						<path class="st3" d="M65.6,33.4H50.5c-0.3,0-0.5-0.2-0.5-0.5s0.2-0.5,0.5-0.5h15.1c0.3,0,0.5,0.2,0.5,0.5S65.8,33.4,65.6,33.4
							z"/>
					</g>
				</g>
			</g>
			<g>
				<g>
					<g>
						<path class="st3" d="M65.6,37.8H50.5c-0.3,0-0.5-0.2-0.5-0.5c0-0.3,0.2-0.5,0.5-0.5h15.1c0.3,0,0.5,0.2,0.5,0.5
							C66,37.6,65.8,37.8,65.6,37.8z"/>
					</g>
				</g>
			</g>
			<g>
				<g>
					<g>
						<path class="st3" d="M65.6,42H50.5c-0.3,0-0.5-0.2-0.5-0.5s0.2-0.5,0.5-0.5h15.1c0.3,0,0.5,0.2,0.5,0.5S65.8,42,65.6,42z"/>
					</g>
				</g>
			</g>
			<g>
				<g>
					<g>
						<path class="st3" d="M65.6,46.4H50.5c-0.3,0-0.5-0.2-0.5-0.5s0.2-0.5,0.5-0.5h15.1c0.3,0,0.5,0.2,0.5,0.5S65.8,46.4,65.6,46.4
							z"/>
					</g>
				</g>
			</g>
			<g>
				<g>
					<g>
						<path class="st3" d="M65.6,50.7H29.4c-0.3,0-0.5-0.2-0.5-0.5c0-0.3,0.2-0.5,0.5-0.5h36.2c0.3,0,0.5,0.2,0.5,0.5
							C66,50.5,65.8,50.7,65.6,50.7z"/>
					</g>
				</g>
			</g>
			<g>
				<g>
					<g>
						<path class="st3" d="M65.6,55.1H29.4c-0.3,0-0.5-0.2-0.5-0.5c0-0.3,0.2-0.5,0.5-0.5h36.2c0.3,0,0.5,0.2,0.5,0.5
							C66,54.9,65.8,55.1,65.6,55.1z"/>
					</g>
				</g>
			</g>
			<g>
				<g>
					<g>
						<path class="st3" d="M65.6,59.4H29.4c-0.3,0-0.5-0.2-0.5-0.5c0-0.3,0.2-0.5,0.5-0.5h36.2c0.3,0,0.5,0.2,0.5,0.5
							C66,59.2,65.8,59.4,65.6,59.4z"/>
					</g>
				</g>
			</g>
			<g>
				<g>
					<g>
						<path class="st3" d="M65.6,63.7H29.4c-0.3,0-0.5-0.2-0.5-0.5c0-0.3,0.2-0.5,0.5-0.5h36.2c0.3,0,0.5,0.2,0.5,0.5
							C66,63.5,65.8,63.7,65.6,63.7z"/>
					</g>
				</g>
			</g>
			<g>
				<g>
					<g>
						<g>
							<path class="st3" d="M45.3,45.4H28.6c-0.3,0-0.5-0.2-0.5-0.5V32.4c0-0.3,0.2-0.5,0.5-0.5h16.7c0.3,0,0.5,0.2,0.5,0.5V45
								C45.7,45.2,45.5,45.4,45.3,45.4z M29,44.5h15.8V32.8H29V44.5z"/>
						</g>
					</g>
				</g>
				<g>
					<g>
						<g>
							<path class="st3" d="M38.9,43.1c-0.1,0-0.2,0-0.3-0.1l-4.2-4.1l-5.2,3.9c-0.2,0.2-0.5,0.1-0.6-0.1c-0.2-0.2-0.1-0.5,0.1-0.6
								l5.5-4.1c0.2-0.1,0.4-0.1,0.6,0l4.5,4.4c0.2,0.2,0.2,0.5,0,0.6C39.1,43.1,39,43.1,38.9,43.1z"/>
						</g>
					</g>
				</g>
				<g>
					<g>
						<g>
							<path class="st3" d="M45,42.4c-0.1,0-0.2,0-0.2-0.1l-4-2.4l-2.6,1.6c-0.2,0.1-0.5,0.1-0.6-0.2c-0.1-0.2-0.1-0.5,0.2-0.6
								l2.9-1.7c0.1-0.1,0.3-0.1,0.5,0l4.3,2.6c0.2,0.1,0.3,0.4,0.2,0.6C45.3,42.3,45.1,42.4,45,42.4z"/>
						</g>
					</g>
				</g>
				<g>
					<g>
						<g>
							<path class="st3" d="M38.4,37.5c-0.9,0-1.6-0.7-1.6-1.6c0-0.9,0.7-1.6,1.6-1.6c0.9,0,1.6,0.7,1.6,1.6
								C40,36.8,39.3,37.5,38.4,37.5z M38.4,35.2c-0.4,0-0.7,0.3-0.7,0.7c0,0.4,0.3,0.7,0.7,0.7c0.4,0,0.7-0.3,0.7-0.7
								C39.1,35.5,38.8,35.2,38.4,35.2z"/>
						</g>
					</g>
				</g>
			</g>
		</g>
	</g>
	<g>
		<g>
			<g>
				<path class="st3" d="M70.8,68.1h-47c-0.3,0-0.5-0.2-0.5-0.5s0.2-0.5,0.5-0.5h47c0.3,0,0.5,0.2,0.5,0.5S71,68.1,70.8,68.1z"/>
			</g>
		</g>
	</g>
	<g>
		<g>
			<g>
				<path class="st3" d="M34.2,74.5c0,0.3-0.2,0.5-0.5,0.5h-7.5c-0.3,0-0.5-0.2-0.5-0.5V70c0-0.3,0.2-0.5,0.5-0.5h7.5
					c0.3,0,0.5,0.2,0.5,0.5V74.5z M26.8,74h6.5v-3.6h-6.5V74z"/>
			</g>
		</g>
	</g>
	<g>
		<g>
			<g>
				<g>
					<path class="st3" d="M59.1,71.5H37.4c-0.3,0-0.5-0.2-0.5-0.5s0.2-0.5,0.5-0.5h21.7c0.3,0,0.5,0.2,0.5,0.5S59.4,71.5,59.1,71.5z
						"/>
				</g>
			</g>
		</g>
		<g>
			<g>
				<g>
					<path class="st3" d="M67.4,73.8h-30c-0.3,0-0.5-0.2-0.5-0.5c0-0.3,0.2-0.5,0.5-0.5h30c0.3,0,0.5,0.2,0.5,0.5
						C67.9,73.6,67.7,73.8,67.4,73.8z"/>
				</g>
			</g>
		</g>
	</g>
</g>
<g>
	<g>
		<g>
			<path class="st3" d="M23,38.5H2c-0.8,0-1.5-0.7-1.5-1.5V10.6c0-0.8,0.7-1.5,1.5-1.5h26.5c0.8,0,1.5,0.7,1.5,1.5v6.5
				c0,0.3-0.2,0.5-0.5,0.5c-0.3,0-0.5-0.2-0.5-0.5v-6.5c0-0.3-0.2-0.5-0.5-0.5H2c-0.3,0-0.5,0.2-0.5,0.5V37c0,0.3,0.2,0.5,0.5,0.5
				H23c0.3,0,0.5,0.2,0.5,0.5S23.3,38.5,23,38.5z"/>
		</g>
	</g>
</g>
<g>
	<g>
		<g>
			<g>
				<g>
					<path class="st3" d="M8.7,14.8H4.8c-0.3,0-0.5-0.2-0.5-0.5s0.2-0.5,0.5-0.5h3.9c0.3,0,0.5,0.2,0.5,0.5S8.9,14.8,8.7,14.8z"/>
				</g>
			</g>
		</g>
		<g>
			<g>
				<g>
					<path class="st3" d="M25.5,14.8H14.1c-0.3,0-0.5-0.2-0.5-0.5s0.2-0.5,0.5-0.5h11.4c0.3,0,0.5,0.2,0.5,0.5S25.7,14.8,25.5,14.8z
						"/>
				</g>
			</g>
		</g>
	</g>
	<g>
		<g>
			<g>
				<path class="st3" d="M24.3,19.5H4.8c-0.3,0-0.5-0.2-0.5-0.5c0-0.3,0.2-0.5,0.5-0.5h19.5c0.3,0,0.5,0.2,0.5,0.5
					C24.8,19.3,24.6,19.5,24.3,19.5z"/>
			</g>
		</g>
	</g>
	<g>
		<g>
			<g>
				<path class="st3" d="M23,24.2H4.8c-0.3,0-0.5-0.2-0.5-0.5c0-0.3,0.2-0.5,0.5-0.5H23c0.3,0,0.5,0.2,0.5,0.5
					C23.5,24,23.3,24.2,23,24.2z"/>
			</g>
		</g>
	</g>
	<g>
		<g>
			<g>
				<path class="st3" d="M23,29H4.8c-0.3,0-0.5-0.2-0.5-0.5c0-0.3,0.2-0.5,0.5-0.5H23c0.3,0,0.5,0.2,0.5,0.5
					C23.5,28.8,23.3,29,23,29z"/>
			</g>
		</g>
	</g>
	<g>
		<g>
			<g>
				<path class="st3" d="M23,33.7H4.8c-0.3,0-0.5-0.2-0.5-0.5s0.2-0.5,0.5-0.5H23c0.3,0,0.5,0.2,0.5,0.5S23.3,33.7,23,33.7z"/>
			</g>
		</g>
	</g>
</g>
<g>
	<g>
		<g>
			<g>
				<g>
					<path class="st3" d="M96.3,89.9H51.5c-1.2,0-2.2-1-2.2-2.2V77.3c0-0.3,0.2-0.5,0.5-0.5s0.5,0.2,0.5,0.5v10.4
						c0,0.7,0.6,1.3,1.3,1.3h44.8c0.7,0,1.3-0.6,1.3-1.3V50c0-0.7-0.6-1.3-1.3-1.3H70.9c-0.3,0-0.5-0.2-0.5-0.5s0.2-0.5,0.5-0.5
						h25.4c1.2,0,2.2,1,2.2,2.2v37.7C98.5,88.9,97.5,89.9,96.3,89.9z"/>
				</g>
			</g>
		</g>
		<g>
			<g>
				<g>
					<g>
						<path class="st3" d="M93.9,72.5H71.3c-0.3,0-0.5-0.2-0.5-0.5c0-0.3,0.2-0.5,0.5-0.5h22.2V56.5H71c-0.3,0-0.5-0.2-0.5-0.5
							c0-0.3,0.2-0.5,0.5-0.5h22.9c0.3,0,0.5,0.2,0.5,0.5v16.1C94.4,72.3,94.1,72.5,93.9,72.5z"/>
					</g>
				</g>
			</g>
		</g>
		<g>
			<g>
				<g>
					<path class="st3" d="M97.8,52.9H71.1c-0.3,0-0.5-0.2-0.5-0.5s0.2-0.5,0.5-0.5h26.7c0.3,0,0.5,0.2,0.5,0.5S98,52.9,97.8,52.9z"
						/>
				</g>
			</g>
		</g>
		<g>
			<g>
				<g>
					<g>
						<path class="st3" d="M86.1,50.7h-15c-0.3,0-0.5-0.2-0.5-0.5s0.2-0.5,0.5-0.5h15c0.3,0,0.5,0.2,0.5,0.5S86.3,50.7,86.1,50.7z"
							/>
					</g>
				</g>
			</g>
		</g>
	</g>
	<g>
		<g>
			<g>
				<path class="st3" d="M91,64.5c-0.1,0-0.2,0-0.3-0.1l-5.9-5.9l-5.6,5.6c-0.2,0.2-0.5,0.2-0.6,0l-3.7-3.7L71.3,64
					c-0.2,0.2-0.5,0.2-0.6,0c-0.2-0.2-0.2-0.5,0-0.6l3.9-3.9c0.2-0.2,0.5-0.2,0.6,0l3.7,3.7l5.6-5.6c0.2-0.2,0.5-0.2,0.6,0l5.9,5.9
					l2.2-2.2c0.2-0.2,0.5-0.2,0.6,0c0.2,0.2,0.2,0.5,0,0.6l-2.5,2.5C91.2,64.4,91.1,64.5,91,64.5z"/>
			</g>
		</g>
	</g>
	<g>
		<g>
			<g>
				<g>
					<path class="st3" d="M61.5,78.9h-8c-0.3,0-0.5-0.2-0.5-0.5s0.2-0.5,0.5-0.5h8c0.3,0,0.5,0.2,0.5,0.5S61.7,78.9,61.5,78.9z"/>
				</g>
			</g>
		</g>
		<g>
			<g>
				<g>
					<path class="st3" d="M61.5,81.4h-8c-0.3,0-0.5-0.2-0.5-0.5s0.2-0.5,0.5-0.5h8c0.3,0,0.5,0.2,0.5,0.5S61.7,81.4,61.5,81.4z"/>
				</g>
			</g>
		</g>
		<g>
			<g>
				<g>
					<path class="st3" d="M61.5,83.8h-8c-0.3,0-0.5-0.2-0.5-0.5s0.2-0.5,0.5-0.5h8c0.3,0,0.5,0.2,0.5,0.5S61.7,83.8,61.5,83.8z"/>
				</g>
			</g>
		</g>
		<g>
			<g>
				<g>
					<path class="st3" d="M61.5,86.2h-8c-0.3,0-0.5-0.2-0.5-0.5c0-0.3,0.2-0.5,0.5-0.5h8c0.3,0,0.5,0.2,0.5,0.5
						C61.9,86,61.7,86.2,61.5,86.2z"/>
				</g>
			</g>
		</g>
	</g>
	<g>
		<g>
			<g>
				<g>
					<path class="st3" d="M77.9,78.9h-8c-0.3,0-0.5-0.2-0.5-0.5s0.2-0.5,0.5-0.5h8c0.3,0,0.5,0.2,0.5,0.5S78.1,78.9,77.9,78.9z"/>
				</g>
			</g>
		</g>
		<g>
			<g>
				<g>
					<path class="st3" d="M77.9,76.6H71c-0.3,0-0.5-0.2-0.5-0.5s0.2-0.5,0.5-0.5h6.9c0.3,0,0.5,0.2,0.5,0.5S78.1,76.6,77.9,76.6z"/>
				</g>
			</g>
		</g>
		<g>
			<g>
				<g>
					<path class="st3" d="M77.9,81.4h-8c-0.3,0-0.5-0.2-0.5-0.5s0.2-0.5,0.5-0.5h8c0.3,0,0.5,0.2,0.5,0.5S78.1,81.4,77.9,81.4z"/>
				</g>
			</g>
		</g>
		<g>
			<g>
				<g>
					<path class="st3" d="M77.9,83.8h-8c-0.3,0-0.5-0.2-0.5-0.5s0.2-0.5,0.5-0.5h8c0.3,0,0.5,0.2,0.5,0.5S78.1,83.8,77.9,83.8z"/>
				</g>
			</g>
		</g>
		<g>
			<g>
				<g>
					<path class="st3" d="M77.9,86.2h-8c-0.3,0-0.5-0.2-0.5-0.5c0-0.3,0.2-0.5,0.5-0.5h8c0.3,0,0.5,0.2,0.5,0.5
						C78.3,86,78.1,86.2,77.9,86.2z"/>
				</g>
			</g>
		</g>
	</g>
	<g>
		<g>
			<g>
				<g>
					<path class="st3" d="M94.2,78.9h-8c-0.3,0-0.5-0.2-0.5-0.5S86,78,86.3,78h8c0.3,0,0.5,0.2,0.5,0.5S94.5,78.9,94.2,78.9z"/>
				</g>
			</g>
		</g>
		<g>
			<g>
				<g>
					<path class="st3" d="M94.2,76.6h-8c-0.3,0-0.5-0.2-0.5-0.5s0.2-0.5,0.5-0.5h8c0.3,0,0.5,0.2,0.5,0.5S94.5,76.6,94.2,76.6z"/>
				</g>
			</g>
		</g>
		<g>
			<g>
				<g>
					<path class="st3" d="M94.2,81.4h-8c-0.3,0-0.5-0.2-0.5-0.5s0.2-0.5,0.5-0.5h8c0.3,0,0.5,0.2,0.5,0.5S94.5,81.4,94.2,81.4z"/>
				</g>
			</g>
		</g>
		<g>
			<g>
				<g>
					<path class="st3" d="M94.2,83.8h-8c-0.3,0-0.5-0.2-0.5-0.5s0.2-0.5,0.5-0.5h8c0.3,0,0.5,0.2,0.5,0.5S94.5,83.8,94.2,83.8z"/>
				</g>
			</g>
		</g>
		<g>
			<g>
				<g>
					<path class="st3" d="M94.2,86.2h-8c-0.3,0-0.5-0.2-0.5-0.5c0-0.3,0.2-0.5,0.5-0.5h8c0.3,0,0.5,0.2,0.5,0.5
						C94.7,86,94.5,86.2,94.2,86.2z"/>
				</g>
			</g>
		</g>
	</g>
</g>
<g>
	<g>
		<g>
			<g>
				<path class="st3" d="M15.2,41.9c-0.3,0-0.5-0.2-0.5-0.5v-0.8c0-0.3,0.2-0.5,0.5-0.5s0.5,0.2,0.5,0.5v0.8
					C15.6,41.7,15.4,41.9,15.2,41.9z"/>
			</g>
		</g>
	</g>
	<g>
		<g>
			<g>
				<path class="st3" d="M15.2,64.5c-0.3,0-0.5-0.2-0.5-0.5v-1.6c0-0.3,0.2-0.5,0.5-0.5s0.5,0.2,0.5,0.5V64
					C15.6,64.3,15.4,64.5,15.2,64.5z M15.2,59.9c-0.3,0-0.5-0.2-0.5-0.5v-1.6c0-0.3,0.2-0.5,0.5-0.5s0.5,0.2,0.5,0.5v1.6
					C15.6,59.7,15.4,59.9,15.2,59.9z M15.2,55.4c-0.3,0-0.5-0.2-0.5-0.5v-1.6c0-0.3,0.2-0.5,0.5-0.5s0.5,0.2,0.5,0.5V55
					C15.6,55.2,15.4,55.4,15.2,55.4z M15.2,50.9c-0.3,0-0.5-0.2-0.5-0.5v-1.6c0-0.3,0.2-0.5,0.5-0.5s0.5,0.2,0.5,0.5v1.6
					C15.6,50.7,15.4,50.9,15.2,50.9z M15.2,46.4c-0.3,0-0.5-0.2-0.5-0.5v-1.6c0-0.3,0.2-0.5,0.5-0.5s0.5,0.2,0.5,0.5v1.6
					C15.6,46.2,15.4,46.4,15.2,46.4z"/>
			</g>
		</g>
	</g>
	<g>
		<g>
			<g>
				<path class="st3" d="M15.9,68.2h-0.8c-0.3,0-0.5-0.2-0.5-0.5v-0.8c0-0.3,0.2-0.5,0.5-0.5s0.5,0.2,0.5,0.5v0.3h0.3
					c0.3,0,0.5,0.2,0.5,0.5S16.2,68.2,15.9,68.2z"/>
			</g>
		</g>
	</g>
	<g>
		<g>
			<g>
				<path class="st3" d="M18.1,68.2h-0.8c-0.3,0-0.5-0.2-0.5-0.5s0.2-0.5,0.5-0.5h0.8c0.3,0,0.5,0.2,0.5,0.5S18.3,68.2,18.1,68.2z"
					/>
			</g>
		</g>
	</g>
	<g>
		<g>
			<g>
				<path class="st3" d="M20.2,68.2h-0.8c-0.3,0-0.5-0.2-0.5-0.5s0.2-0.5,0.5-0.5h0.8c0.3,0,0.5,0.2,0.5,0.5S20.5,68.2,20.2,68.2z"
					/>
			</g>
		</g>
	</g>
</g>
<g>
	<g>
		<g>
			<g>
				<path class="st3" d="M93.6,46.2c-0.3,0-0.5-0.2-0.5-0.5V45c0-0.3,0.2-0.5,0.5-0.5S94,44.7,94,45v0.7C94,46,93.8,46.2,93.6,46.2z
					"/>
			</g>
		</g>
	</g>
	<g>
		<g>
			<g>
				<path class="st3" d="M93.6,42.7c-0.3,0-0.5-0.2-0.5-0.5v-1.5c0-0.3,0.2-0.5,0.5-0.5s0.5,0.2,0.5,0.5v1.5
					C94,42.5,93.8,42.7,93.6,42.7z M93.6,38.5c-0.3,0-0.5-0.2-0.5-0.5v-1.5c0-0.3,0.2-0.5,0.5-0.5s0.5,0.2,0.5,0.5V38
					C94,38.3,93.8,38.5,93.6,38.5z"/>
			</g>
		</g>
	</g>
	<g>
		<g>
			<g>
				<path class="st3" d="M93.6,34.2c-0.3,0-0.5-0.2-0.5-0.5v-0.3h-0.3c-0.3,0-0.5-0.2-0.5-0.5c0-0.3,0.2-0.5,0.5-0.5h0.8
					c0.3,0,0.5,0.2,0.5,0.5v0.8C94,34,93.8,34.2,93.6,34.2z"/>
			</g>
		</g>
	</g>
	<g>
		<g>
			<g>
				<path class="st3" d="M90.2,33.5h-1.5c-0.3,0-0.5-0.2-0.5-0.5c0-0.3,0.2-0.5,0.5-0.5h1.5c0.3,0,0.5,0.2,0.5,0.5
					C90.7,33.3,90.5,33.5,90.2,33.5z M86.2,33.5h-1.5c-0.3,0-0.5-0.2-0.5-0.5c0-0.3,0.2-0.5,0.5-0.5h1.5c0.3,0,0.5,0.2,0.5,0.5
					C86.7,33.3,86.4,33.5,86.2,33.5z M82.2,33.5h-1.5c-0.3,0-0.5-0.2-0.5-0.5c0-0.3,0.2-0.5,0.5-0.5h1.5c0.3,0,0.5,0.2,0.5,0.5
					C82.6,33.3,82.4,33.5,82.2,33.5z M78.1,33.5h-1.5c-0.3,0-0.5-0.2-0.5-0.5c0-0.3,0.2-0.5,0.5-0.5h1.5c0.3,0,0.5,0.2,0.5,0.5
					C78.6,33.3,78.4,33.5,78.1,33.5z"/>
			</g>
		</g>
	</g>
	<g>
		<g>
			<g>
				<path class="st3" d="M74,33.5h-0.7c-0.3,0-0.5-0.2-0.5-0.5c0-0.3,0.2-0.5,0.5-0.5H74c0.3,0,0.5,0.2,0.5,0.5
					C74.5,33.3,74.3,33.5,74,33.5z"/>
			</g>
		</g>
	</g>
</g>
<g>
	<g>
		<g>
			<path class="st3" d="M3.6,89.2c-0.3-0.1-0.4-0.5-0.3-0.8l0,0c0.1-0.3,0.5-0.4,0.8-0.3l0,0l0,0l0,0c0.3,0.1,0.4,0.5,0.3,0.8l0,0
				c-0.1,0.2-0.3,0.4-0.6,0.4l0,0C3.7,89.3,3.6,89.2,3.6,89.2z M5.3,88.9c-0.2-0.3,0-0.7,0.3-0.8l0,0c0.3-0.2,0.7,0,0.8,0.3l0,0
				c0.2,0.3,0,0.7-0.3,0.8l0,0c-0.1,0-0.2,0.1-0.3,0.1l0,0C5.7,89.2,5.4,89.1,5.3,88.9z M1.9,87.2c-0.1-0.3,0.1-0.7,0.5-0.7l0,0
				c0.3-0.1,0.7,0.1,0.7,0.5l0,0c0.1,0.3-0.1,0.7-0.5,0.7l0,0c0,0-0.1,0-0.1,0l0,0C2.2,87.7,2,87.5,1.9,87.2z M7,87.6
				c-0.3-0.1-0.5-0.4-0.5-0.7l0,0c0.1-0.3,0.4-0.5,0.7-0.5l0,0c0.3,0.1,0.5,0.4,0.5,0.7l0,0c-0.1,0.3-0.3,0.5-0.6,0.5l0,0
				C7.1,87.6,7.1,87.6,7,87.6z M2.6,85.5c-0.3-0.2-0.3-0.6-0.1-0.9l0,0c0.2-0.3,0.6-0.3,0.9-0.1l0,0c0.3,0.2,0.3,0.6,0.1,0.9l0,0
				c-0.1,0.2-0.3,0.2-0.5,0.2l0,0C2.8,85.6,2.7,85.6,2.6,85.5z M6.2,85.4c-0.2-0.3-0.2-0.6,0.1-0.9l0,0c0.3-0.2,0.6-0.2,0.9,0.1l0,0
				c0.2,0.3,0.2,0.6-0.1,0.9l0,0c-0.1,0.1-0.3,0.1-0.4,0.1l0,0C6.5,85.6,6.3,85.5,6.2,85.4z M4.2,84.1c0-0.3,0.3-0.6,0.6-0.6l0,0
				c0.3,0,0.6,0.3,0.6,0.6l0,0c0,0.3-0.3,0.6-0.6,0.6l0,0C4.5,84.7,4.2,84.5,4.2,84.1z"/>
		</g>
	</g>
</g>
<g>
	<g>
		<g>
			<path class="st3" d="M40.2,86c-0.3-0.1-0.4-0.5-0.3-0.8l0,0c0.1-0.3,0.5-0.4,0.8-0.3l0,0l0,0l0,0c0.3,0.1,0.4,0.5,0.3,0.8l0,0
				c-0.1,0.2-0.3,0.4-0.6,0.4l0,0C40.3,86.1,40.2,86,40.2,86z M41.9,85.7c-0.2-0.3,0-0.7,0.3-0.8l0,0c0.3-0.2,0.7,0,0.8,0.3l0,0
				c0.2,0.3,0,0.7-0.3,0.8l0,0c-0.1,0-0.2,0.1-0.3,0.1l0,0C42.3,86,42,85.9,41.9,85.7z M38.5,84c-0.1-0.3,0.1-0.7,0.5-0.7l0,0
				c0.3-0.1,0.7,0.1,0.7,0.5l0,0c0.1,0.3-0.1,0.7-0.5,0.7l0,0c0,0-0.1,0-0.1,0l0,0C38.8,84.5,38.6,84.3,38.5,84z M43.6,84.4
				c-0.3-0.1-0.5-0.4-0.5-0.7l0,0c0,0,0,0,0,0l0,0c0.1-0.3,0.4-0.5,0.7-0.5l0,0c0.3,0.1,0.5,0.4,0.5,0.7l0,0
				c-0.1,0.3-0.3,0.5-0.6,0.5l0,0C43.7,84.4,43.7,84.4,43.6,84.4z M39.2,82.3c-0.3-0.2-0.3-0.6-0.1-0.9l0,0c0.2-0.3,0.6-0.3,0.9-0.1
				l0,0c0.3,0.2,0.3,0.6,0.1,0.9l0,0c-0.1,0.2-0.3,0.2-0.5,0.2l0,0C39.4,82.4,39.3,82.4,39.2,82.3z M42.8,82.2
				c-0.2-0.3-0.2-0.6,0.1-0.9l0,0c0.3-0.2,0.6-0.2,0.9,0.1l0,0c0.2,0.3,0.2,0.6-0.1,0.9l0,0c-0.1,0.1-0.3,0.1-0.4,0.1l0,0
				C43.1,82.4,42.9,82.3,42.8,82.2z M40.8,80.9c0-0.3,0.3-0.6,0.6-0.6l0,0c0.3,0,0.6,0.3,0.6,0.6l0,0c0,0.3-0.3,0.6-0.6,0.6l0,0
				C41.1,81.5,40.8,81.3,40.8,80.9z"/>
		</g>
	</g>
</g>
<g>
	<g>
		<g>
			<path class="st3" d="M92.9,17c-0.3-0.1-0.4-0.5-0.3-0.8l0,0c0.1-0.3,0.5-0.4,0.8-0.3l0,0l0,0l0,0c0.3,0.1,0.4,0.5,0.3,0.8l0,0
				c-0.1,0.2-0.3,0.4-0.6,0.4l0,0C93.1,17.1,93,17,92.9,17z M94.7,16.7c-0.2-0.3,0-0.7,0.3-0.8l0,0l0,0l0,0c0.3-0.2,0.7,0,0.8,0.3
				l0,0c0.2,0.3,0,0.7-0.3,0.8l0,0c-0.1,0-0.2,0.1-0.3,0.1l0,0C95,17,94.8,16.9,94.7,16.7z M91.3,15c-0.1-0.3,0.1-0.7,0.5-0.7l0,0
				c0.3-0.1,0.7,0.1,0.7,0.5l0,0c0.1,0.3-0.1,0.7-0.5,0.7l0,0c0,0-0.1,0-0.1,0l0,0C91.6,15.5,91.4,15.3,91.3,15z M96.4,15.4
				c-0.3-0.1-0.5-0.4-0.5-0.7l0,0c0.1-0.3,0.4-0.5,0.7-0.5l0,0c0.3,0.1,0.5,0.4,0.5,0.7l0,0c-0.1,0.3-0.3,0.5-0.6,0.5l0,0
				C96.5,15.4,96.5,15.4,96.4,15.4z M92,13.3c-0.3-0.2-0.3-0.6-0.1-0.9l0,0c0.2-0.3,0.6-0.3,0.9-0.1l0,0c0.3,0.2,0.3,0.6,0.1,0.9
				l0,0c-0.1,0.2-0.3,0.2-0.5,0.2l0,0C92.2,13.4,92.1,13.4,92,13.3z M95.6,13.2c-0.2-0.3-0.2-0.6,0.1-0.9l0,0
				c0.3-0.2,0.6-0.2,0.9,0.1l0,0c0.2,0.3,0.2,0.6-0.1,0.9l0,0c-0.1,0.1-0.3,0.1-0.4,0.1l0,0C95.9,13.4,95.7,13.3,95.6,13.2z
				 M93.6,11.9c0-0.3,0.3-0.6,0.6-0.6l0,0c0.3,0,0.6,0.3,0.6,0.6l0,0c0,0.3-0.3,0.6-0.6,0.6l0,0C93.9,12.5,93.6,12.3,93.6,11.9z"/>
		</g>
	</g>
</g>
<g>
	<g>
		<g>
			<g>
				<path class="st3" d="M7.2,56.6c-0.3,0-0.5-0.2-0.5-0.5v-3.1c0-0.3,0.2-0.5,0.5-0.5c0.3,0,0.5,0.2,0.5,0.5v3.1
					C7.6,56.4,7.4,56.6,7.2,56.6z"/>
			</g>
		</g>
	</g>
	<g>
		<g>
			<g>
				<path class="st3" d="M8.7,55.1H5.6c-0.3,0-0.5-0.2-0.5-0.5c0-0.3,0.2-0.5,0.5-0.5h3.1c0.3,0,0.5,0.2,0.5,0.5
					C9.2,54.9,9,55.1,8.7,55.1z"/>
			</g>
		</g>
	</g>
</g>
<g>
	<g>
		<g>
			<g>
				<path class="st3" d="M23.1,85.4c-0.3,0-0.5-0.2-0.5-0.5v-3.1c0-0.3,0.2-0.5,0.5-0.5c0.3,0,0.5,0.2,0.5,0.5v3.1
					C23.5,85.2,23.3,85.4,23.1,85.4z"/>
			</g>
		</g>
	</g>
	<g>
		<g>
			<g>
				<path class="st3" d="M24.6,83.8h-3.1c-0.3,0-0.5-0.2-0.5-0.5s0.2-0.5,0.5-0.5h3.1c0.3,0,0.5,0.2,0.5,0.5S24.9,83.8,24.6,83.8z"
					/>
			</g>
		</g>
	</g>
</g>
<g>
	<g>
		<g>
			<g>
				<path class="st3" d="M86.1,27.3c-0.3,0-0.5-0.2-0.5-0.5v-3.1c0-0.3,0.2-0.5,0.5-0.5s0.5,0.2,0.5,0.5v3.1
					C86.6,27.1,86.4,27.3,86.1,27.3z"/>
			</g>
		</g>
	</g>
	<g>
		<g>
			<g>
				<path class="st3" d="M87.7,25.8h-3.1c-0.3,0-0.5-0.2-0.5-0.5c0-0.3,0.2-0.5,0.5-0.5h3.1c0.3,0,0.5,0.2,0.5,0.5
					C88.1,25.6,87.9,25.8,87.7,25.8z"/>
			</g>
		</g>
	</g>
</g>
</svg>
