<?xml version="1.0" encoding="utf-8"?>
<!-- Generator: Adobe Illustrator 23.0.6, SVG Export Plug-In . SVG Version: 6.00 Build 0)  -->
<svg version="1.1" id="Layer_1" xmlns="http://www.w3.org/2000/svg" xmlns:xlink="http://www.w3.org/1999/xlink" x="0px" y="0px"
	 viewBox="0 0 100 100" style="enable-background:new 0 0 100 100;" xml:space="preserve">
<style type="text/css">
	.st0{fill:#e9ecf04b;}
	.st1{fill:#7289DA;}
	.st2{fill:#7289DA;}

</style>
<g>
	<g>
		<g>
			<path class="st0" d="M60.5,47.3L60.5,47.3c-0.1,0-20.4,0-25,0c-0.5,0-0.9,0.4-0.9,0.9v3.2l21.8,0.1l5,5l0.1,29.6h3.1
				c0.5,0,0.9-0.4,0.9-0.9V52.4h0l0-0.1L60.5,47.3z"/>
		</g>
	</g>
</g>
<g>
	<g>
		<g>
			<path class="st0" d="M24.5,36.5c-0.9,0-1.6,0.4-2.2,1.1c-0.2,0.3-0.6,0.4-1,0.4H21v-6.7c0-0.7-0.5-1.2-1.2-1.2H13v0.4
				c0,0.4,0.2,0.7,0.4,0.9c0.6,0.5,1,1.3,1,2.1c0,1.5-1.1,2.7-2.6,2.8c-1.6,0.1-3.1-1.2-3.1-2.8c0-0.8,0.3-1.5,0.8-2
				c0.3-0.3,0.4-0.6,0.4-1v-0.5H3.6c-0.7,0-1.2,0.5-1.2,1.2v16.1c0,0.7,0.5,1.2,1.2,1.2h6.4v0.4c0,0.4-0.2,0.8-0.4,1
				c-0.5,0.5-0.8,1.2-0.8,2c0,1.6,1.4,2.9,3,2.8c1.5-0.1,2.6-1.4,2.6-2.8c0-0.9-0.4-1.6-1-2.1c-0.3-0.2-0.4-0.6-0.4-1v-0.4h6.8
				c0.7,0,1.2-0.5,1.2-1.2v-6.6h0.5c0.4,0,0.7,0.2,1,0.4c0.5,0.5,1.2,0.8,2.1,0.8c1.6,0,2.9-1.4,2.8-3C27.2,37.6,26,36.5,24.5,36.5z
				"/>
		</g>
	</g>
</g>
<g>
	<g>
		<g>
			<polygon class="st1" points="90.1,18.6 86.3,11.1 82.6,18.6 74.3,19.8 80.3,25.7 78.9,34 86.3,30.1 93.8,34 92.4,25.7 98.4,19.8 
							"/>
		</g>
	</g>
</g>
<g>
	<g>
		<g>
			<path class="st1" d="M19.7,11.6H3.6c-0.7,0-1.2,0.5-1.2,1.2v16.2c0,0.7,0.5,1.2,1.2,1.2h6.6v0.5c0,0.4-0.2,0.7-0.4,1
				c-0.6,0.5-0.9,1.3-0.9,2.1c0,1.6,1.4,2.9,3,2.8c1.4-0.1,2.6-1.4,2.6-2.8c0-0.8-0.4-1.6-1-2.1c-0.3-0.2-0.5-0.6-0.5-1v-0.4h6.7
				c0.7,0,1.2-0.5,1.2-1.2v-6.6h-0.6c-0.4,0-0.8,0.2-1.1,0.5c-0.5,0.5-1.2,0.7-2,0.7c-1.5,0-2.7-1.1-2.8-2.6c-0.1-1.6,1.2-3,2.8-3
				c0.9,0,1.7,0.5,2.2,1.1c0.2,0.3,0.5,0.4,0.9,0.4h0.6v-6.6C20.9,12.1,20.4,11.6,19.7,11.6z"/>
		</g>
	</g>
</g>
<g>
	<g>
		<g>
			<g>
				<path class="st2" d="M11.7,55.4c-0.8,0-1.6-0.3-2.2-0.9c-0.7-0.6-1-1.5-1-2.4c0-0.9,0.3-1.8,0.9-2.4c0.2-0.2,0.3-0.4,0.3-0.7h-6
					c-0.9,0-1.7-0.7-1.7-1.7V31.3c0-0.9,0.7-1.7,1.7-1.7h6.4c0.3,0,0.5,0.2,0.5,0.5v0.5c0,0.5-0.2,1-0.6,1.4
					c-0.5,0.5-0.7,1.1-0.7,1.7c0,0.6,0.3,1.3,0.8,1.7c0.5,0.5,1.2,0.7,1.8,0.6c1.2-0.1,2.2-1.1,2.2-2.4c0-0.7-0.3-1.3-0.9-1.8
					c-0.4-0.3-0.6-0.8-0.6-1.3v-0.4c0-0.3,0.2-0.5,0.5-0.5h6.8c0.9,0,1.7,0.7,1.7,1.7v6.2c0.2,0,0.4-0.1,0.6-0.3
					c0.6-0.8,1.5-1.2,2.5-1.2c0,0,0,0,0,0c1.7,0,3.1,1.3,3.3,3c0.1,0.9-0.2,1.8-0.9,2.5c-0.6,0.7-1.5,1-2.4,1c-0.9,0-1.8-0.4-2.4-1
					c-0.2-0.2-0.4-0.3-0.7-0.3h0v6.1c0,0.9-0.7,1.7-1.7,1.7h-6.4c0,0.2,0.1,0.4,0.3,0.5c0.8,0.6,1.2,1.5,1.2,2.5
					c0,1.7-1.3,3.2-3,3.3C11.8,55.4,11.8,55.4,11.7,55.4z M3.6,30.6c-0.4,0-0.7,0.3-0.7,0.7v16.1c0,0.4,0.3,0.7,0.7,0.7h6.4
					c0.3,0,0.5,0.2,0.5,0.5v0.4c0,0.5-0.2,1-0.6,1.4c-0.4,0.4-0.7,1-0.7,1.7c0,0.7,0.3,1.3,0.8,1.7c0.5,0.5,1.1,0.7,1.8,0.6
					c1.2-0.1,2.2-1.1,2.1-2.4c0-0.7-0.3-1.3-0.9-1.8c-0.4-0.3-0.6-0.8-0.6-1.3v-0.4c0-0.3,0.2-0.5,0.5-0.5h6.8
					c0.4,0,0.7-0.3,0.7-0.7v-6.6c0-0.3,0.2-0.5,0.5-0.5h0.5c0.5,0,1,0.2,1.3,0.6c0.4,0.5,1.1,0.7,1.7,0.7c0.7,0,1.3-0.3,1.7-0.8
					c0.5-0.5,0.7-1.1,0.6-1.8c-0.1-1.2-1.1-2.1-2.3-2.1c0,0,0,0,0,0h0c-0.7,0-1.3,0.3-1.8,0.9c-0.3,0.4-0.8,0.6-1.3,0.6H21
					c-0.3,0-0.5-0.2-0.5-0.5v-6.7c0-0.4-0.3-0.7-0.7-0.7h-6.4c0,0.2,0.1,0.4,0.3,0.6c0.8,0.6,1.2,1.5,1.2,2.5c0,1.7-1.3,3.2-3,3.3
					c-0.9,0.1-1.8-0.3-2.5-0.9c-0.7-0.6-1-1.5-1-2.4c0-0.9,0.3-1.7,1-2.4c0.2-0.2,0.3-0.4,0.3-0.7v0H3.6z"/>
			</g>
		</g>
	</g>
	<g>
		<g>
			<g>
				<path class="st2" d="M11.7,36.9c-0.8,0-1.6-0.3-2.3-0.9c-0.7-0.6-1-1.5-1-2.4c0-0.9,0.4-1.8,1.1-2.4c0.2-0.2,0.3-0.4,0.3-0.6
					H3.6c-0.9,0-1.7-0.7-1.7-1.7V12.8c0-0.9,0.7-1.7,1.7-1.7h16.1c0.9,0,1.7,0.7,1.7,1.7v6.6c0,0.3-0.2,0.5-0.5,0.5h-0.6
					c-0.5,0-0.9-0.2-1.2-0.6c-0.5-0.6-1.2-0.9-1.8-0.9c-0.7,0-1.3,0.3-1.7,0.8c-0.4,0.5-0.7,1.1-0.6,1.8c0.1,1.2,1.1,2.2,2.4,2.1
					c0.7,0,1.3-0.2,1.7-0.6c0.3-0.3,1-0.6,1.4-0.6h0.6c0.3,0,0.5,0.2,0.5,0.5v6.6c0,0.9-0.7,1.7-1.7,1.7h-6.2c0,0.2,0.1,0.4,0.3,0.6
					c0.7,0.6,1.1,1.5,1.1,2.5c0,1.7-1.4,3.2-3,3.3C11.8,36.9,11.8,36.9,11.7,36.9z M3.6,12c-0.4,0-0.7,0.3-0.7,0.7v16.2
					c0,0.4,0.3,0.7,0.7,0.7h6.6c0.3,0,0.5,0.2,0.5,0.5v0.5c0,0.5-0.2,1-0.6,1.3c-0.5,0.5-0.8,1.1-0.8,1.8c0,0.7,0.3,1.3,0.7,1.7
					c0.5,0.5,1.1,0.7,1.8,0.6c1.2-0.1,2.2-1.1,2.2-2.4c0-0.7-0.3-1.3-0.8-1.8c-0.4-0.3-0.6-0.8-0.6-1.3v-0.4c0-0.3,0.2-0.5,0.5-0.5
					h6.7c0.4,0,0.7-0.3,0.7-0.7v-6.2h-0.1c-0.2,0-0.6,0.2-0.8,0.3c-0.6,0.6-1.4,0.9-2.3,0.9c0,0,0,0,0,0c-1.7,0-3.1-1.3-3.3-3
					c-0.1-0.9,0.2-1.8,0.9-2.5c0.6-0.7,1.5-1,2.4-1c0,0,0,0,0,0c0.9,0,1.9,0.5,2.5,1.2c0.1,0.2,0.3,0.2,0.5,0.2h0.1v-6.2
					c0-0.4-0.3-0.7-0.7-0.7H3.6z"/>
			</g>
		</g>
	</g>
</g>
<g>
	<g>
		<g>
			<g>
				<g>
					<path class="st2" d="M55.5,66.5h-19c-0.3,0-0.5-0.2-0.5-0.5s0.2-0.5,0.5-0.5h19c0.3,0,0.5,0.2,0.5,0.5S55.7,66.5,55.5,66.5z"/>
				</g>
			</g>
		</g>
		<g>
			<g>
				<g>
					<path class="st2" d="M55.5,63.3h-19c-0.3,0-0.5-0.2-0.5-0.5s0.2-0.5,0.5-0.5h19c0.3,0,0.5,0.2,0.5,0.5S55.7,63.3,55.5,63.3z"/>
				</g>
			</g>
		</g>
		<g>
			<g>
				<g>
					<path class="st2" d="M55.5,69.6h-19c-0.3,0-0.5-0.2-0.5-0.5s0.2-0.5,0.5-0.5h19c0.3,0,0.5,0.2,0.5,0.5S55.7,69.6,55.5,69.6z"/>
				</g>
			</g>
		</g>
		<g>
			<g>
				<g>
					<path class="st2" d="M55.5,72.8h-19c-0.3,0-0.5-0.2-0.5-0.5s0.2-0.5,0.5-0.5h19c0.3,0,0.5,0.2,0.5,0.5S55.7,72.8,55.5,72.8z"/>
				</g>
			</g>
		</g>
		<g>
			<g>
				<g>
					<path class="st2" d="M55.5,76.1h-19c-0.3,0-0.5-0.2-0.5-0.5s0.2-0.5,0.5-0.5h19c0.3,0,0.5,0.2,0.5,0.5S55.7,76.1,55.5,76.1z"/>
				</g>
			</g>
		</g>
		<g>
			<g>
				<g>
					<path class="st2" d="M46,79.2h-9.5c-0.3,0-0.5-0.2-0.5-0.5c0-0.3,0.2-0.5,0.5-0.5H46c0.3,0,0.5,0.2,0.5,0.5
						C46.4,79,46.2,79.2,46,79.2z"/>
				</g>
			</g>
		</g>
	</g>
	<g>
		<g>
			<g>
				<path class="st2" d="M39.4,59.2h-2.9c-0.3,0-0.5-0.2-0.5-0.5c0-0.3,0.2-0.5,0.5-0.5h2.9c0.3,0,0.5,0.2,0.5,0.5
					C39.8,59,39.6,59.2,39.4,59.2z"/>
			</g>
		</g>
	</g>
	<g>
		<g>
			<g>
				<path class="st2" d="M48.5,59.2h-5.1c-0.3,0-0.5-0.2-0.5-0.5c0-0.3,0.2-0.5,0.5-0.5h5.1c0.3,0,0.5,0.2,0.5,0.5
					C48.9,59,48.7,59.2,48.5,59.2z"/>
			</g>
		</g>
	</g>
	<g>
		<g>
			<g>
				<path class="st2" d="M60.5,90.7H31.4c-0.8,0-1.4-0.6-1.4-1.4V52.3c0-0.8,0.6-1.4,1.4-1.4h24.9c0.3,0,0.5,0.2,0.5,0.5v4.2
					c0,0.2,0.2,0.4,0.4,0.4h4.2c0.3,0,0.5,0.2,0.5,0.5v32.8C61.9,90,61.2,90.7,60.5,90.7z M31.4,51.9c-0.2,0-0.4,0.2-0.4,0.4v36.9
					c0,0.2,0.2,0.4,0.4,0.4h29.1c0.2,0,0.4-0.2,0.4-0.4V57h-3.7c-0.8,0-1.4-0.6-1.4-1.4v-3.7H31.4z"/>
			</g>
		</g>
	</g>
	<g>
		<g>
			<g>
				<path class="st2" d="M61.3,56.9c-0.1,0-0.2,0-0.3-0.1l-5-5c-0.2-0.2-0.2-0.5,0-0.7c0.2-0.2,0.5-0.2,0.7,0l5,5
					c0.2,0.2,0.2,0.5,0,0.7C61.6,56.9,61.5,56.9,61.3,56.9z"/>
			</g>
		</g>
	</g>
	<g>
		<g>
			<g>
				<path class="st2" d="M64.6,86.5h-2.8c-0.3,0-0.5-0.2-0.5-0.5s0.2-0.5,0.5-0.5h2.8c0.2,0,0.4-0.2,0.4-0.4V52.5l-4.7-4.8H35.5
					c-0.2,0-0.4,0.2-0.4,0.4V51c0,0.3-0.2,0.5-0.5,0.5c-0.3,0-0.5-0.2-0.5-0.5v-2.8c0-0.8,0.6-1.4,1.4-1.4h25c0.1,0,0.2,0.1,0.3,0.1
					l5,5.1c0,0,0.1,0.1,0.1,0.2l0,0.1c0,0.1,0,0.2,0,0.3v32.6C65.9,85.9,65.3,86.5,64.6,86.5z"/>
			</g>
		</g>
	</g>
	<g>
		<g>
			<g>
				<path class="st2" d="M68.7,82.4h-2.8c-0.3,0-0.5-0.2-0.5-0.5c0-0.3,0.2-0.5,0.5-0.5h2.8c0.2,0,0.4-0.2,0.4-0.4V48.4l-4.7-4.8
					H39.7c-0.2,0-0.4,0.2-0.4,0.4v2.8c0,0.3-0.2,0.5-0.5,0.5c-0.3,0-0.5-0.2-0.5-0.5v-2.8c0-0.8,0.6-1.4,1.4-1.4h25
					c0.1,0,0.2,0.1,0.3,0.1l5,5.1c0,0,0.1,0.1,0.1,0.2l0,0.1c0,0.1,0,0.2,0,0.3V81C70.1,81.8,69.5,82.4,68.7,82.4z"/>
			</g>
		</g>
	</g>
</g>
<g>
	<g>
		<g>
			<path class="st2" d="M78.9,34.5c-0.1,0-0.2,0-0.3-0.1c-0.1-0.1-0.2-0.3-0.2-0.5l1.4-8.1L74,20.2c-0.1-0.1-0.2-0.3-0.1-0.5
				c0.1-0.2,0.2-0.3,0.4-0.3l8.1-1.2l3.6-7.3c0.1-0.2,0.2-0.3,0.4-0.3s0.3,0.1,0.4,0.3l3.6,7.3l8.1,1.2c0.2,0,0.3,0.1,0.4,0.3
				c0.1,0.2,0,0.4-0.1,0.5l-5.9,5.7l1.4,8.1c0,0.2,0,0.3-0.2,0.5c-0.1,0.1-0.3,0.1-0.5,0l-7.2-3.8l-7.2,3.8
				C79,34.4,79,34.5,78.9,34.5z M86.3,29.6c0.1,0,0.1,0,0.2,0.1l6.6,3.5l-1.3-7.4c0-0.2,0-0.3,0.1-0.4l5.4-5.2L90,19.1
				c-0.2,0-0.3-0.1-0.3-0.3l-3.3-6.7L83,18.8c-0.1,0.1-0.2,0.2-0.3,0.3l-7.4,1.1l5.4,5.2c0.1,0.1,0.2,0.3,0.1,0.4l-1.3,7.4l6.6-3.5
				C86.2,29.6,86.3,29.6,86.3,29.6z"/>
		</g>
	</g>
</g>
<g>
	<g>
		<g>
			<g>
				<path class="st2" d="M86.4,40.1c-0.3,0-0.5-0.2-0.5-0.5v-0.8c0-0.3,0.2-0.5,0.5-0.5s0.5,0.2,0.5,0.5v0.8
					C86.8,39.9,86.6,40.1,86.4,40.1z"/>
			</g>
		</g>
	</g>
	<g>
		<g>
			<g>
				<path class="st2" d="M86.4,67.8c-0.3,0-0.5-0.2-0.5-0.5v-1.7c0-0.3,0.2-0.5,0.5-0.5s0.5,0.2,0.5,0.5v1.7
					C86.8,67.6,86.6,67.8,86.4,67.8z M86.4,63.2c-0.3,0-0.5-0.2-0.5-0.5V61c0-0.3,0.2-0.5,0.5-0.5s0.5,0.2,0.5,0.5v1.7
					C86.8,63,86.6,63.2,86.4,63.2z M86.4,58.5c-0.3,0-0.5-0.2-0.5-0.5v-1.7c0-0.3,0.2-0.5,0.5-0.5s0.5,0.2,0.5,0.5v1.7
					C86.8,58.3,86.6,58.5,86.4,58.5z M86.4,53.9c-0.3,0-0.5-0.2-0.5-0.5v-1.7c0-0.3,0.2-0.5,0.5-0.5s0.5,0.2,0.5,0.5v1.7
					C86.8,53.7,86.6,53.9,86.4,53.9z M86.4,49.3c-0.3,0-0.5-0.2-0.5-0.5v-1.7c0-0.3,0.2-0.5,0.5-0.5s0.5,0.2,0.5,0.5v1.7
					C86.8,49.1,86.6,49.3,86.4,49.3z M86.4,44.7c-0.3,0-0.5-0.2-0.5-0.5v-1.7c0-0.3,0.2-0.5,0.5-0.5s0.5,0.2,0.5,0.5v1.7
					C86.8,44.5,86.6,44.7,86.4,44.7z"/>
			</g>
		</g>
	</g>
	<g>
		<g>
			<g>
				<path class="st2" d="M86.4,71.3h-0.8c-0.3,0-0.5-0.2-0.5-0.5c0-0.3,0.2-0.5,0.5-0.5h0.3v-0.3c0-0.3,0.2-0.5,0.5-0.5
					s0.5,0.2,0.5,0.5v0.8C86.8,71.1,86.6,71.3,86.4,71.3z"/>
			</g>
		</g>
	</g>
	<g>
		<g>
			<g>
				<path class="st2" d="M82.9,71.3h-1.5c-0.3,0-0.5-0.2-0.5-0.5c0-0.3,0.2-0.5,0.5-0.5h1.5c0.3,0,0.5,0.2,0.5,0.5
					C83.4,71.1,83.2,71.3,82.9,71.3z M78.8,71.3h-1.5c-0.3,0-0.5-0.2-0.5-0.5c0-0.3,0.2-0.5,0.5-0.5h1.5c0.3,0,0.5,0.2,0.5,0.5
					C79.3,71.1,79.1,71.3,78.8,71.3z"/>
			</g>
		</g>
	</g>
	<g>
		<g>
			<g>
				<path class="st2" d="M74.7,71.3h-0.7c-0.3,0-0.5-0.2-0.5-0.5c0-0.3,0.2-0.5,0.5-0.5h0.7c0.3,0,0.5,0.2,0.5,0.5
					C75.1,71.1,74.9,71.3,74.7,71.3z"/>
			</g>
		</g>
	</g>
</g>
<g>
	<g>
		<g>
			<g>
				<path class="st2" d="M11.7,60c-0.3,0-0.5-0.2-0.5-0.5v-0.8c0-0.3,0.2-0.5,0.5-0.5s0.5,0.2,0.5,0.5v0.8C12.2,59.8,12,60,11.7,60z
					"/>
			</g>
		</g>
	</g>
	<g>
		<g>
			<g>
				<path class="st2" d="M11.7,68c-0.3,0-0.5-0.2-0.5-0.5v-1.4c0-0.3,0.2-0.5,0.5-0.5s0.5,0.2,0.5,0.5v1.4C12.2,67.8,12,68,11.7,68z
					 M11.7,64c-0.3,0-0.5-0.2-0.5-0.5v-1.4c0-0.3,0.2-0.5,0.5-0.5s0.5,0.2,0.5,0.5v1.4C12.2,63.8,12,64,11.7,64z"/>
			</g>
		</g>
	</g>
	<g>
		<g>
			<g>
				<path class="st2" d="M12.5,71.3h-0.8c-0.3,0-0.5-0.2-0.5-0.5v-0.8c0-0.3,0.2-0.5,0.5-0.5s0.5,0.2,0.5,0.5v0.3h0.3
					c0.3,0,0.5,0.2,0.5,0.5C13,71.1,12.7,71.3,12.5,71.3z"/>
			</g>
		</g>
	</g>
	<g>
		<g>
			<g>
				<path class="st2" d="M21.5,71.3h-1.6c-0.3,0-0.5-0.2-0.5-0.5c0-0.3,0.2-0.5,0.5-0.5h1.6c0.3,0,0.5,0.2,0.5,0.5
					C22,71.1,21.8,71.3,21.5,71.3z M17,71.3h-1.6c-0.3,0-0.5-0.2-0.5-0.5c0-0.3,0.2-0.5,0.5-0.5H17c0.3,0,0.5,0.2,0.5,0.5
					C17.5,71.1,17.2,71.3,17,71.3z"/>
			</g>
		</g>
	</g>
	<g>
		<g>
			<g>
				<path class="st2" d="M25.3,71.3h-0.8c-0.3,0-0.5-0.2-0.5-0.5c0-0.3,0.2-0.5,0.5-0.5h0.8c0.3,0,0.5,0.2,0.5,0.5
					C25.7,71.1,25.5,71.3,25.3,71.3z"/>
			</g>
		</g>
	</g>
</g>
<g>
	<g>
		<g>
			<g>
				<path class="st2" d="M46.6,28.4c-0.3,0-0.5-0.2-0.5-0.5v-2.8c0-0.3,0.2-0.5,0.5-0.5c0.3,0,0.5,0.2,0.5,0.5v2.8
					C47,28.2,46.8,28.4,46.6,28.4z"/>
			</g>
		</g>
	</g>
	<g>
		<g>
			<g>
				<path class="st2" d="M48,27h-2.8c-0.3,0-0.5-0.2-0.5-0.5c0-0.3,0.2-0.5,0.5-0.5H48c0.3,0,0.5,0.2,0.5,0.5
					C48.4,26.8,48.2,27,48,27z"/>
			</g>
		</g>
	</g>
</g>
<g>
	<g>
		<g>
			<g>
				<path class="st2" d="M22.9,80.9c-0.3,0-0.5-0.2-0.5-0.5v-2.8c0-0.3,0.2-0.5,0.5-0.5s0.5,0.2,0.5,0.5v2.8
					C23.3,80.7,23.1,80.9,22.9,80.9z"/>
			</g>
		</g>
	</g>
	<g>
		<g>
			<g>
				<path class="st2" d="M24.3,79.6h-2.8c-0.3,0-0.5-0.2-0.5-0.5s0.2-0.5,0.5-0.5h2.8c0.3,0,0.5,0.2,0.5,0.5S24.5,79.6,24.3,79.6z"
					/>
			</g>
		</g>
	</g>
</g>
<g>
	<g>
		<g>
			<g>
				<path class="st2" d="M69.6,14.4c-0.3,0-0.5-0.2-0.5-0.5v-2.8c0-0.3,0.2-0.5,0.5-0.5c0.3,0,0.5,0.2,0.5,0.5v2.8
					C70.1,14.2,69.9,14.4,69.6,14.4z"/>
			</g>
		</g>
	</g>
	<g>
		<g>
			<g>
				<path class="st2" d="M71,13h-2.8c-0.3,0-0.5-0.2-0.5-0.5s0.2-0.5,0.5-0.5H71c0.3,0,0.5,0.2,0.5,0.5S71.3,13,71,13z"/>
			</g>
		</g>
	</g>
</g>
<g>
	<g>
		<g>
			<g>
				<path class="st2" d="M80,53.4c-0.3,0-0.5-0.2-0.5-0.5v-2.8c0-0.3,0.2-0.5,0.5-0.5c0.3,0,0.5,0.2,0.5,0.5v2.8
					C80.5,53.2,80.3,53.4,80,53.4z"/>
			</g>
		</g>
	</g>
	<g>
		<g>
			<g>
				<path class="st2" d="M81.4,52h-2.8c-0.3,0-0.5-0.2-0.5-0.5s0.2-0.5,0.5-0.5h2.8c0.3,0,0.5,0.2,0.5,0.5S81.7,52,81.4,52z"/>
			</g>
		</g>
	</g>
</g>
<g>
	<g>
		<g>
			<g>
				<path class="st2" d="M78.6,85.3c-0.3,0-0.5-0.2-0.5-0.5V82c0-0.3,0.2-0.5,0.5-0.5s0.5,0.2,0.5,0.5v2.8
					C79.1,85.1,78.8,85.3,78.6,85.3z"/>
			</g>
		</g>
	</g>
	<g>
		<g>
			<g>
				<path class="st2" d="M80,83.9h-2.8c-0.3,0-0.5-0.2-0.5-0.5s0.2-0.5,0.5-0.5H80c0.3,0,0.5,0.2,0.5,0.5S80.2,83.9,80,83.9z"/>
			</g>
		</g>
	</g>
</g>
<g>
	<g>
		<g>
			<g>
				<path class="st2" d="M96.8,59.7c-0.3,0-0.5-0.2-0.5-0.5v-2.8c0-0.3,0.2-0.5,0.5-0.5s0.5,0.2,0.5,0.5v2.8
					C97.3,59.5,97,59.7,96.8,59.7z"/>
			</g>
		</g>
	</g>
	<g>
		<g>
			<g>
				<path class="st2" d="M98.2,58.3h-2.8c-0.3,0-0.5-0.2-0.5-0.5s0.2-0.5,0.5-0.5h2.8c0.3,0,0.5,0.2,0.5,0.5S98.4,58.3,98.2,58.3z"
					/>
			</g>
		</g>
	</g>
</g>
<g>
	<g>
		<g>
			<path class="st2" d="M31.7,18.1c0-0.3,0.3-0.6,0.6-0.6l0,0l0,0l0,0c0.3,0,0.6,0.3,0.6,0.6l0,0c0,0.3-0.3,0.6-0.6,0.6l0,0
				c0,0,0,0,0,0l0,0C32,18.7,31.7,18.5,31.7,18.1z M29.9,17.8c-0.2-0.2-0.3-0.6,0-0.9l0,0c0.2-0.2,0.6-0.3,0.9,0l0,0l0,0l0,0
				c0.2,0.2,0.3,0.6,0,0.9l0,0c-0.1,0.1-0.3,0.2-0.4,0.2l0,0C30.2,18,30,17.9,29.9,17.8z M33.9,17.7c-0.2-0.2-0.3-0.6,0-0.9l0,0
				c0.2-0.2,0.6-0.3,0.9,0l0,0c0.2,0.2,0.3,0.6,0,0.9l0,0c-0.1,0.1-0.3,0.2-0.4,0.2l0,0C34.2,17.9,34,17.8,33.9,17.7z M28.9,15.4
				c0-0.3,0.3-0.6,0.6-0.6l0,0c0.3,0,0.6,0.3,0.6,0.6l0,0c0,0.3-0.3,0.6-0.6,0.6l0,0c0,0,0,0,0,0l0,0C29.1,16,28.9,15.7,28.9,15.4z
				 M34.5,15.3c0-0.3,0.3-0.6,0.6-0.6l0,0c0.3,0,0.6,0.3,0.6,0.6l0,0c0,0.3-0.3,0.6-0.6,0.6l0,0c0,0,0,0,0,0l0,0
				C34.7,15.8,34.5,15.6,34.5,15.3z M29.8,13.8c-0.2-0.2-0.2-0.6,0-0.9l0,0c0.2-0.2,0.6-0.2,0.9,0l0,0c0.2,0.2,0.2,0.6,0,0.9l0,0
				c-0.1,0.1-0.3,0.2-0.4,0.2l0,0C30.1,14,30,13.9,29.8,13.8z M33.8,13.7L33.8,13.7L33.8,13.7c-0.3-0.2-0.3-0.6,0-0.9l0,0
				c0.2-0.3,0.6-0.3,0.9,0l0,0c0.3,0.2,0.3,0.6,0,0.9l0,0c-0.1,0.1-0.3,0.2-0.5,0.2l0,0C34,13.9,33.9,13.8,33.8,13.7z M31.7,12.5
				c0-0.3,0.3-0.6,0.6-0.6l0,0c0.3,0,0.6,0.3,0.6,0.6l0,0c0,0.3-0.3,0.6-0.6,0.6l0,0C31.9,13.1,31.7,12.9,31.7,12.5z"/>
		</g>
	</g>
</g>
<g>
	<g>
		<g>
			<path class="st2" d="M67.8,35.2c0-0.3,0.3-0.6,0.6-0.6l0,0c0.3,0,0.6,0.3,0.6,0.6l0,0c0,0.3-0.3,0.6-0.6,0.6l0,0c0,0,0,0,0,0l0,0
				C68,35.8,67.8,35.6,67.8,35.2z M65.9,34.9L65.9,34.9c-0.2-0.2-0.3-0.6,0-0.9l0,0c0.2-0.2,0.6-0.3,0.9,0l0,0l0,0l0,0
				c0.2,0.2,0.3,0.6,0,0.9l0,0c-0.1,0.1-0.3,0.2-0.4,0.2l0,0C66.2,35.1,66.1,35,65.9,34.9z M69.9,34.8c-0.2-0.2-0.3-0.6,0-0.9l0,0
				l0,0l0,0c0.2-0.2,0.6-0.3,0.9,0l0,0c0.2,0.2,0.3,0.6,0,0.9l0,0c-0.1,0.1-0.3,0.2-0.4,0.2l0,0C70.2,35,70,34.9,69.9,34.8z
				 M64.9,32.5c0-0.3,0.3-0.6,0.6-0.6l0,0c0.3,0,0.6,0.3,0.6,0.6l0,0c0,0.3-0.3,0.6-0.6,0.6l0,0c0,0,0,0,0,0l0,0
				C65.2,33.1,64.9,32.8,64.9,32.5z M70.5,32.3c0-0.3,0.3-0.6,0.6-0.6l0,0c0.3,0,0.6,0.2,0.6,0.6l0,0c0,0.3-0.3,0.6-0.6,0.6l0,0
				c0,0,0,0,0,0l0,0C70.8,32.9,70.5,32.7,70.5,32.3z M65.9,30.9c-0.2-0.2-0.2-0.6,0-0.9l0,0c0.2-0.2,0.6-0.2,0.9,0l0,0
				c0.2,0.2,0.2,0.6,0,0.9l0,0c-0.1,0.1-0.3,0.2-0.4,0.2l0,0C66.2,31.1,66,31,65.9,30.9z M69.8,30.8c-0.3-0.2-0.3-0.6,0-0.9l0,0
				c0.2-0.3,0.6-0.3,0.9,0l0,0c0.3,0.2,0.3,0.6,0,0.9l0,0c-0.1,0.1-0.3,0.2-0.5,0.2l0,0C70.1,31,69.9,30.9,69.8,30.8z M67.7,29.6
				c0-0.3,0.3-0.6,0.6-0.6l0,0c0.3,0,0.6,0.3,0.6,0.6l0,0c0,0.3-0.3,0.6-0.6,0.6l0,0C68,30.2,67.7,30,67.7,29.6z"/>
		</g>
	</g>
</g>
<g>
	<g>
		<g>
			<path class="st2" d="M19.5,64.3c0-0.3,0.3-0.6,0.6-0.6l0,0l0,0l0,0c0.3,0,0.6,0.3,0.6,0.6l0,0c0,0.3-0.3,0.6-0.6,0.6l0,0
				c0,0,0,0,0,0l0,0C19.8,64.9,19.5,64.7,19.5,64.3z M17.7,64L17.7,64c-0.2-0.2-0.3-0.6,0-0.9l0,0c0.2-0.2,0.6-0.3,0.9,0l0,0l0,0
				l0,0c0.2,0.2,0.3,0.6,0,0.9l0,0c-0.1,0.1-0.3,0.2-0.4,0.2l0,0C18,64.2,17.8,64.1,17.7,64z M21.7,63.9c-0.2-0.2-0.3-0.6,0-0.9l0,0
				l0,0l0,0c0.2-0.2,0.6-0.3,0.9,0l0,0c0.2,0.2,0.3,0.6,0,0.9l0,0c-0.1,0.1-0.3,0.2-0.4,0.2l0,0C22,64.1,21.8,64,21.7,63.9z
				 M16.6,61.6c0-0.3,0.3-0.6,0.6-0.6l0,0c0.3,0,0.6,0.3,0.6,0.6l0,0c0,0.3-0.3,0.6-0.6,0.6l0,0c0,0,0,0,0,0l0,0
				C16.9,62.2,16.6,61.9,16.6,61.6z M22.2,61.4c0-0.3,0.3-0.6,0.6-0.6l0,0c0.3,0,0.6,0.2,0.6,0.6l0,0c0,0.3-0.3,0.6-0.6,0.6l0,0
				c0,0,0,0,0,0l0,0C22.5,62,22.3,61.8,22.2,61.4z M17.6,60c-0.2-0.2-0.2-0.6,0-0.9l0,0c0.2-0.2,0.6-0.2,0.9,0l0,0
				c0.2,0.2,0.2,0.6,0,0.9l0,0c-0.1,0.1-0.3,0.2-0.4,0.2l0,0C17.9,60.2,17.8,60.1,17.6,60z M21.5,59.9c-0.3-0.2-0.3-0.6,0-0.9l0,0
				c0.2-0.3,0.6-0.3,0.9,0l0,0c0.3,0.2,0.3,0.6,0,0.9l0,0c-0.1,0.1-0.3,0.2-0.5,0.2l0,0C21.8,60.1,21.7,60,21.5,59.9z M19.5,58.7
				c0-0.3,0.3-0.6,0.6-0.6l0,0c0.3,0,0.6,0.3,0.6,0.6l0,0c0,0.3-0.3,0.6-0.6,0.6l0,0c0,0,0,0,0,0l0,0C20.1,59.4,19.5,59.1,19.5,58.7
				z"/>
		</g>
	</g>
</g>
<g>
	<g>
		<g>
			<path class="st2" d="M3.7,88.9c0-0.3,0.3-0.6,0.6-0.6l0,0c0.3,0,0.6,0.3,0.6,0.6l0,0c0,0.3-0.3,0.6-0.6,0.6l0,0c0,0,0,0,0,0l0,0
				C4,89.5,3.7,89.2,3.7,88.9z M1.9,88.6L1.9,88.6c-0.2-0.2-0.3-0.6,0-0.9l0,0c0.2-0.2,0.6-0.3,0.9,0l0,0c0.2,0.2,0.3,0.6,0,0.9l0,0
				c-0.1,0.1-0.3,0.2-0.4,0.2l0,0C2.2,88.7,2,88.7,1.9,88.6z M5.9,88.5c-0.2-0.2-0.3-0.6,0-0.9l0,0c0.2-0.2,0.6-0.3,0.9,0l0,0
				c0.2,0.2,0.3,0.6,0,0.9l0,0c-0.1,0.1-0.3,0.2-0.4,0.2l0,0C6.2,88.6,6,88.6,5.9,88.5z M0.8,86.1c0-0.3,0.3-0.6,0.6-0.6l0,0
				c0.3,0,0.6,0.3,0.6,0.6l0,0c0,0.3-0.3,0.6-0.6,0.6l0,0c0,0,0,0,0,0l0,0C1.1,86.8,0.9,86.5,0.8,86.1z M6.5,86
				c0-0.3,0.3-0.6,0.6-0.6l0,0c0.3,0,0.6,0.3,0.6,0.6l0,0c0,0.3-0.3,0.6-0.6,0.6l0,0c0,0,0,0,0,0l0,0C6.7,86.6,6.5,86.3,6.5,86z
				 M1.8,84.6c-0.2-0.2-0.2-0.6,0-0.9l0,0c0.2-0.2,0.6-0.2,0.9,0l0,0c0.2,0.2,0.2,0.6,0,0.9l0,0l0,0l0,0c-0.1,0.1-0.3,0.2-0.4,0.2
				l0,0C2.1,84.7,2,84.7,1.8,84.6z M5.7,84.5c-0.3-0.2-0.3-0.6,0-0.9l0,0c0.2-0.3,0.6-0.3,0.9,0l0,0c0.3,0.2,0.3,0.6,0,0.9l0,0
				c-0.1,0.1-0.3,0.2-0.5,0.2l0,0C6,84.6,5.9,84.6,5.7,84.5z M3.7,83.3c0-0.3,0.3-0.6,0.6-0.6l0,0c0.3,0,0.6,0.3,0.6,0.6l0,0
				c0,0.3-0.3,0.6-0.6,0.6l0,0l0,0l0,0C3.9,83.9,3.7,83.6,3.7,83.3z"/>
		</g>
	</g>
</g>
<g>
	<g>
		<g>
			<path class="st2" d="M93.4,88.9c0-0.3,0.3-0.6,0.6-0.6l0,0c0.3,0,0.6,0.3,0.6,0.6l0,0c0,0.3-0.3,0.6-0.6,0.6l0,0c0,0,0,0,0,0l0,0
				C93.7,89.5,93.4,89.2,93.4,88.9z M91.6,88.6c-0.2-0.2-0.3-0.6,0-0.9l0,0c0.2-0.2,0.6-0.3,0.9,0l0,0l0,0l0,0
				c0.2,0.2,0.3,0.6,0,0.9l0,0c-0.1,0.1-0.3,0.2-0.4,0.2l0,0C91.9,88.7,91.7,88.7,91.6,88.6z M95.6,88.5c-0.2-0.2-0.3-0.6,0-0.9l0,0
				c0.2-0.2,0.6-0.3,0.9,0l0,0c0.2,0.2,0.3,0.6,0,0.9l0,0c-0.1,0.1-0.3,0.2-0.4,0.2l0,0C95.9,88.6,95.7,88.6,95.6,88.5z M90.5,86.1
				c0-0.3,0.3-0.6,0.6-0.6l0,0c0.3,0,0.6,0.3,0.6,0.6l0,0c0,0.3-0.3,0.6-0.6,0.6l0,0c0,0,0,0,0,0l0,0C90.8,86.8,90.6,86.5,90.5,86.1
				z M96.2,86L96.2,86L96.2,86c0-0.3,0.3-0.6,0.6-0.6l0,0c0.3,0,0.6,0.2,0.6,0.6l0,0c0,0.3-0.3,0.6-0.6,0.6l0,0c0,0,0,0,0,0l0,0
				C96.4,86.6,96.2,86.3,96.2,86z M91.5,84.6c-0.2-0.2-0.2-0.6,0-0.9l0,0c0.2-0.2,0.6-0.2,0.9,0l0,0c0.2,0.2,0.2,0.6,0,0.9l0,0l0,0
				l0,0c-0.1,0.1-0.3,0.2-0.4,0.2l0,0C91.8,84.7,91.7,84.7,91.5,84.6z M95.4,84.5c-0.3-0.2-0.3-0.6,0-0.9l0,0c0.2-0.3,0.6-0.3,0.9,0
				l0,0c0.3,0.2,0.3,0.6,0,0.9l0,0c-0.1,0.1-0.3,0.2-0.5,0.2l0,0C95.7,84.6,95.6,84.6,95.4,84.5z M93.4,83.3c0-0.3,0.3-0.6,0.6-0.6
				v0c0.3,0,0.6,0.3,0.6,0.6l0,0c0,0.3-0.3,0.6-0.6,0.6l0,0C93.6,83.9,93.4,83.6,93.4,83.3z"/>
		</g>
	</g>
</g>
</svg>
